<svg id="Layer_1" data-name="Layer 1" xmlns="http://www.w3.org/2000/svg" width="143.75" height="283.66" viewBox="0 0 143.75 283.66">
  <title>man</title>
  <g>
    <g>
      <g>
        <path d="M956.9,835.41a.57.57,0,0,1-.59.51l-11.6-1.28L957,837.17a.53.53,0,0,1,.37.66.56.56,0,0,1-.63.44l-9.72-2,10.35,3.09a.53.53,0,0,1,.32.68.56.56,0,0,1-.66.4l-16.14-4.81a.53.53,0,0,1-.32-.68l-.3-.06a.53.53,0,0,1-.37-.66l0-.07,0,0-.3,0a.5.5,0,0,1-.41-.61.42.42,0,0,1,0-.12.56.56,0,0,1,.56-.39l16.64,1.83A.51.51,0,0,1,956.9,835.41Z" transform="translate(-844.25 -772.51)" style="fill: #b0523d"/>
        <path d="M955.93,844.94a.53.53,0,0,1-.68.32L945.33,841l8.74,4.71a.57.57,0,0,1,.19.75.53.53,0,0,1-.7.26l-11.06-6,9.71,6.47a.56.56,0,0,1,.13.76.51.51,0,0,1-.71.21L937.7,838.9a.56.56,0,0,1-.19-.66.53.53,0,0,1,.06-.1.51.51,0,0,1,.71-.21l.24.17a.11.11,0,0,0,0-.05l0-.07a.52.52,0,0,1,.7-.27l.27.15a.53.53,0,0,1,.68-.32l15.47,6.68A.54.54,0,0,1,955.93,844.94Z" transform="translate(-844.25 -772.51)" style="fill: #b0523d"/>
      </g>
      <rect x="911.55" y="775.49" width="2.18" height="101.91" transform="translate(-1020 629.53) rotate(-70.03)" style="fill: #402a49"/>
      <path d="M846.15,803.45l-1.57-.57a.51.51,0,0,1-.3-.66l.39-1.09a.51.51,0,0,1,.66-.3l1.56.57Z" transform="translate(-844.25 -772.51)" style="fill: #c3b8c2"/>
      <path d="M986.89,844.11a10.94,10.94,0,0,1-14,6.54l-13.42-4.88a.8.8,0,0,1-.48-1l.94-2.58a.8.8,0,0,1,1-.48l13.42,4.87a6.56,6.56,0,1,0,.69-12.55,1.6,1.6,0,0,1-1.84-.87l-.5-1.07a1.63,1.63,0,0,1,0-1.35,1.6,1.6,0,0,1,1-.87,10.93,10.93,0,0,1,13.13,14.27Z" transform="translate(-844.25 -772.51)" style="fill: #b0523d"/>
      <path d="M943.62,829.66a21.08,21.08,0,0,1,5.79-.89,1,1,0,0,1,.94.83l.26,1.73a1,1,0,0,0,.94.84,7.18,7.18,0,0,1,2.72.66,1,1,0,0,1,.58.87l.22,8.16L949.66,848a1,1,0,0,1-1,.29,7.21,7.21,0,0,1-2.51-1.23,1,1,0,0,0-1.26,0l-1.31,1.17a1,1,0,0,1-1.26,0,21.48,21.48,0,0,1-3.86-4.4,42.24,42.24,0,0,1-4-6.9l-1.93-.7s-7.34,2.78-32.61-6.39-36-18.54-36-18.54l1.66-4.57s14.25-.28,39.51,8.9,29.12,16,29.12,16l1.92.7A41.68,41.68,0,0,1,943.62,829.66Z" transform="translate(-844.25 -772.51)" style="fill: #382240"/>
      <path d="M863.92,811.33l-2.08-1.58a.52.52,0,0,1-.17-.58l.8-2.2a.51.51,0,0,1,.5-.33l2.61.12Z" transform="translate(-844.25 -772.51)" style="fill: #c3b8c2"/>
      <rect x="931.91" y="833.3" width="4.87" height="2.05" transform="translate(-1013.1 655.16) rotate(-70.04)" style="fill: #4e3d5b"/>
      <path d="M846.89,801.4l15.55,5.65-.27.74-.2.56-.27.75-15.55-5.65Z" transform="translate(-844.25 -772.51)" style="fill: #b0523d"/>
    </g>
    <g>
      <path d="M970.08,845.44a3.92,3.92,0,0,1,6.29,4.69l-2.58,3.47-6.29-4.69Z" transform="translate(-844.25 -772.51)" style="fill: #f8a799"/>
      <path d="M977.75,835.8a10.56,10.56,0,0,1,3.54.3l4,1.07a1.44,1.44,0,0,1,1,1.76,1.55,1.55,0,0,1-.08.23.92.92,0,0,0,0,.78,1,1,0,0,0,.6.5l.08,0a1.44,1.44,0,0,1-.48,2.82,1.17,1.17,0,0,1-.26,0,.27.27,0,0,0-.28.08.28.28,0,0,0-.06.29,1.49,1.49,0,0,1,0,.84,1.46,1.46,0,0,1-1.76,1,.32.32,0,0,0-.39.39,1.14,1.14,0,0,1,0,.66,1.18,1.18,0,0,1-1.46.8l-2.85-.83a1.3,1.3,0,0,0-1.62.93c-.85,3.37-2.79,5.82-4.92,5.88-2.69.07-4.66-3.72-4.4-8.46C969,835.77,969.48,836.54,977.75,835.8Z" transform="translate(-844.25 -772.51)" style="fill: #f8a799"/>
      <path d="M972.89,850.65l-5.27-1.91,1-1.28a14.91,14.91,0,0,1-.08-2.61c0-.15,0-.29,0-.43l5.87,2.13a6.45,6.45,0,0,0,3.9.18,1.29,1.29,0,0,0-.47.7,3,3,0,0,1-4.92,3.22Z" transform="translate(-844.25 -772.51)" style="fill: #b0523d"/>
      <path d="M945.2,886.22a9.46,9.46,0,0,1-7.59-5.66L922,844.42a5.23,5.23,0,0,1,7.93-6.27,5.43,5.43,0,0,1,1.68,2.12l14.89,34.57,19.39-26a.81.81,0,0,1,.57-.34.84.84,0,0,1,.65.16l.35.26,6.29,4.69.35.26a.87.87,0,0,1,.17,1.22L953.9,882.47A9.48,9.48,0,0,1,945.2,886.22Z" transform="translate(-844.25 -772.51)" style="fill: #382240"/>
    </g>
    <g>
      <path d="M942.16,1048.33a5.23,5.23,0,0,1-10.46,0v-5.68h10.46Z" transform="translate(-844.25 -772.51)" style="fill: #714452"/>
      <path d="M918.54,915.51a7.28,7.28,0,0,1,1.8-.23,7,7,0,0,1,6.73,5.17l9.64,35.95a211.92,211.92,0,0,1,7.2,54.71v30.67a.87.87,0,0,1-.87.87H930.83a.87.87,0,0,1-.87-.87v-30.67a197.66,197.66,0,0,0-6.72-51.1l-9.64-36A7,7,0,0,1,918.54,915.51Z" transform="translate(-844.25 -772.51)" style="fill: #d2a290"/>
      <path d="M930.6,1047.64a.77.77,0,0,1,1-.23,6.45,6.45,0,0,1,1.09.89c1.13,1.11,1.56,1.09,3.85,1.09,1.91,0,2.92-4,5.25-5.32a3,3,0,0,1,2-.33,19.52,19.52,0,0,1,13.78,9,2.11,2.11,0,0,1-.11,2.3,2.78,2.78,0,0,1-2.29,1.13H933.1a4.44,4.44,0,0,1-3.21-1.31,3.38,3.38,0,0,1-.93-3A12.3,12.3,0,0,1,930.6,1047.64Z" transform="translate(-844.25 -772.51)" style="fill: #c46a4c"/>
    </g>
    <g>
      <path d="M901.21,1048.33a5.24,5.24,0,0,1-10.47,0v-5.68h10.47Z" transform="translate(-844.25 -772.51)" style="fill: #714452"/>
      <path d="M896,913.1a7,7,0,0,1,7,7v121.71a.87.87,0,0,1-.87.87H889.87a.87.87,0,0,1-.87-.87V920.07A7,7,0,0,1,896,913.1Z" transform="translate(-844.25 -772.51)" style="fill: #d2a290"/>
      <path d="M890.06,1048.28a.41.41,0,0,1,.37-.25.42.42,0,0,1,.37.24,1.91,1.91,0,0,0,2,1.06c2.31,0,1.69-4.57,8-5.1a4.75,4.75,0,0,1,2.38.41,15.88,15.88,0,0,1,7.84,8.11,2.65,2.65,0,0,1-.07,2.3,2,2,0,0,1-1.76,1.13H892.26a3.07,3.07,0,0,1-2.46-1.31,4.1,4.1,0,0,1-.71-3A15.19,15.19,0,0,1,890.06,1048.28Z" transform="translate(-844.25 -772.51)" style="fill: #c46a4c"/>
    </g>
    <path d="M918.57,834.66c-3.26-1.47-7.66-2-16.78-1.8-4.92.08-7.91.84-9.69,1.82,0,0-1.41,16.17,13.51,15.92S918.57,834.66,918.57,834.66Z" transform="translate(-844.25 -772.51)" style="fill: #4e3d5b"/>
    <path d="M909.18,847.69a6.85,6.85,0,0,0,4.22-7.05l-2.59-25.11a6.86,6.86,0,1,0-13.64,1.41l2.59,25.11a6.86,6.86,0,0,0,7.53,6.12A7,7,0,0,0,909.18,847.69Z" transform="translate(-844.25 -772.51)" style="fill: #f8a799"/>
    <path d="M898.48,829.62l-1.31-12.68a6.86,6.86,0,1,1,13.64-1.41l1.68,16.24a34.74,34.74,0,0,1-8.65-.65A36.88,36.88,0,0,1,898.48,829.62Z" transform="translate(-844.25 -772.51)" style="fill: #f58a8a"/>
    <path d="M879.75,839.64c11.34-6.11,38-6.27,48.92-.85a3.93,3.93,0,0,1,1.77,5.26,3.79,3.79,0,0,1-.2.34,15.83,15.83,0,0,0-2.39,9.39,93.12,93.12,0,0,1-1.6,23.8c-3.76,17.13.4,27.37.49,32.62.19,10.73.51,19.59-18.63,19.92s-18.86-15-16.74-22.52c1.07-3.81,7.73-15,.93-29.27-4.34-9.12-7.92-17-9-23.81a15.83,15.83,0,0,0-4.44-8.65,4.47,4.47,0,0,1-.68-.92A3.92,3.92,0,0,1,879.75,839.64Z" transform="translate(-844.25 -772.51)" style="fill: #f8a799"/>
    <g>
      <path d="M877.43,841.84a4.32,4.32,0,0,0,.35,3.32,4.39,4.39,0,0,0,.76,1,15.22,15.22,0,0,1,4.3,8.41c1.13,6.9,4.77,14.93,9.07,23.94,5.65,11.89,1.9,21.48-.12,26.64-.37,1-.66,1.71-.84,2.32a25.87,25.87,0,0,0-1,7.13l37.23-.64c0-1.14,0-2.31,0-3.5v-.28a37.53,37.53,0,0,0-.69-5.19,64.89,64.89,0,0,1,.18-27.32,94.07,94.07,0,0,0,1.62-23.93,15.23,15.23,0,0,1,2.32-9.12l.22-.39a4.37,4.37,0,0,0-2-5.84c-3.32-1.65-8.19-2.83-13.85-3.46a82.38,82.38,0,0,1,.12,13.29S904.66,839.78,896,835c-6.79.72-12.56,2.22-16.44,4.3A4.39,4.39,0,0,0,877.43,841.84Z" transform="translate(-844.25 -772.51)" style="fill: #e9e6eb"/>
      <path d="M898.59,834.71c-.89.07-1.75.14-2.61.24,8.68,4.83,19.15,13.28,19.15,13.28a82.38,82.38,0,0,0-.12-13.29l-1.41-.14a68.33,68.33,0,0,1,.27,10S903.87,837.42,898.59,834.71Z" transform="translate(-844.25 -772.51)" style="fill: #ded9e0"/>
    </g>
    <path d="M928.65,908a23.61,23.61,0,0,1,0,4.68l0,.28c-.58,5.46-1.12,10.61-4.2,14.25-3.42,4.06-9.34,5.49-18.63,4.51-7.38-.79-12.51-3.54-15.25-8.17-4.26-7.22-1.09-16.1,0-18.65a29.71,29.71,0,0,1,1.87-3.69l.15-.26a.87.87,0,0,1,.85-.44l34.31,3.65a.86.86,0,0,1,.78.82C928.49,906,928.55,907,928.65,908Z" transform="translate(-844.25 -772.51)" style="fill: #d2a290"/>
    <g>
      <rect x="914.09" y="905.36" width="4.73" height="4.67" rx="0.38" transform="translate(-927.24 950.6) rotate(-83.93)" style="fill: #b0523d"/>
      <path d="M920.29,906.11a1.6,1.6,0,0,0,0-.49l4.45.47-.52,4.91-4.45-.47a1.81,1.81,0,0,0,.13-.47Z" transform="translate(-844.25 -772.51)" style="fill: #b0523d"/>
      <polygon points="60.7 136.44 49.66 135.27 51.34 130.48 61.22 131.53 60.7 136.44" style="fill: #b0523d"/>
      <path d="M892.13,907.6l-2.53-.27c.25-.79.49-1.47.7-2l.19-.47c.21-.49.43-1,.67-1.44l.43-.86h0l2.22.24Z" transform="translate(-844.25 -772.51)" style="fill: #b0523d"/>
      <path d="M912.63,909.29a1.6,1.6,0,0,0,0,.49l-5.55-.59.52-4.91,5.55.59a1.71,1.71,0,0,0-.13.47Z" transform="translate(-844.25 -772.51)" style="fill: #b0523d"/>
      <path d="M926.44,906.28l2.1.22c0,.49.06,1,.11,1.47s.07,1,.09,1.56v.39c0,.52,0,1,0,1.56h0l-2.8-.29Z" transform="translate(-844.25 -772.51)" style="fill: #b0523d"/>
      <path d="M914.13,911.15l3.88.41a1.69,1.69,0,0,0,1.73-1,1.81,1.81,0,0,0,.13-.47l.42-3.95a1.6,1.6,0,0,0,0-.49,1.68,1.68,0,0,0-1.47-1.37l-3.88-.41a1.69,1.69,0,0,0-1.73,1,1.71,1.71,0,0,0-.13.47l-.42,3.95a1.6,1.6,0,0,0,0,.49A1.69,1.69,0,0,0,914.13,911.15Zm4-.89-3.88-.42a.38.38,0,0,1-.34-.41l.42-3.95a.38.38,0,0,1,.42-.34l3.88.41a.38.38,0,0,1,.34.42l-.42,3.95A.38.38,0,0,1,918.15,910.26Z" transform="translate(-844.25 -772.51)" style="fill: #4e3d5b"/>
    </g>
    <g>
      <g>
        <path d="M880.79,804.59c-2.27-10.47,5.48-21,17.29-23.59a24.11,24.11,0,0,1,5.35-.54,22.5,22.5,0,0,1,14.5,5.37,19.6,19.6,0,0,1,4.48,6c1.42,2.82,1.87,5.85,2.54,8.93a81.43,81.43,0,0,1,1.81,8.59,18,18,0,0,1-5.13,14.33c-4.37,4.37-11.31,4.31-17,3.21a33.1,33.1,0,0,1-15.06-7.27,27.67,27.67,0,0,1-8.68-14.48Z" transform="translate(-844.25 -772.51)" style="fill: #f8a799"/>
        <path d="M886.78,806.39c1.74-.73,4.31,1.2,5.74,4.31s1.18,6.23-.56,7-4.31-1.2-5.74-4.31S885,807.12,886.78,806.39Z" transform="translate(-844.25 -772.51)" style="fill: #f58a8a"/>
        <g>
          <path d="M908.67,815.23c.07.07,1.82,1.67,5.4.9s4.51-3,4.55-3.06a.69.69,0,0,1,1.28.5c0,.12-1.2,3-5.54,3.9s-6.56-1.17-6.65-1.26a.69.69,0,0,1,1-1Z" transform="translate(-844.25 -772.51)" style="fill: #dd7d81"/>
          <path d="M921.71,804.08l.19.89a1.33,1.33,0,0,1-1,1.59h0a1.34,1.34,0,0,1-1.59-1l-.19-.9a1.34,1.34,0,1,1,2.62-.56Z" transform="translate(-844.25 -772.51)" style="fill: #542542"/>
          <path d="M903.92,810.23a1.34,1.34,0,0,1-1.59-1l-.19-.9a1.34,1.34,0,1,1,2.62-.56l.19.89A1.33,1.33,0,0,1,903.92,810.23Z" transform="translate(-844.25 -772.51)" style="fill: #542542"/>
          <path d="M905.32,812.12a1.37,1.37,0,0,1,.87,2.6c-.43.16-1.09.56-1.2.93a1.37,1.37,0,0,1-1,.94,1.47,1.47,0,0,1-.69,0,1.38,1.38,0,0,1-.92-1.71A4.78,4.78,0,0,1,905.32,812.12Z" transform="translate(-844.25 -772.51)" style="fill: #f5928d"/>
          <path d="M919.16,810.37a1.38,1.38,0,0,1,1.22-1.51,4.78,4.78,0,0,1,3.83,1.27,1.38,1.38,0,0,1-.13,1.94,1.35,1.35,0,0,1-.61.3,1.39,1.39,0,0,1-1.33-.44,2.13,2.13,0,0,0-1.47-.34A1.37,1.37,0,0,1,919.16,810.37Z" transform="translate(-844.25 -772.51)" style="fill: #f5928d"/>
          <path d="M898.52,804.12c1.59-1.87,5-2.23,5.37-2.26a.86.86,0,0,1,1,.78.87.87,0,0,1-.79,1c-.84.08-3.24.53-4.2,1.66a.87.87,0,0,1-1.23.1A.87.87,0,0,1,898.52,804.12Z" transform="translate(-844.25 -772.51)" style="fill: #a55347"/>
          <path d="M918,800.57a.87.87,0,0,1-.57-1.65c.36-.12,3.61-1.2,5.83-.15a.87.87,0,0,1,.41,1.16.9.9,0,0,1-.6.48.85.85,0,0,1-.56-.07C921.19,799.71,918.81,800.29,918,800.57Z" transform="translate(-844.25 -772.51)" style="fill: #a55347"/>
        </g>
      </g>
      <g>
        <path d="M894.23,812c0,.57,0,.24,0,.81a9.8,9.8,0,0,0,2.57,6.51c1.59,1.74,3.81,2.34,6,3s5.84,1.49,7.67-.31c.76-.74,1.2-1.75,2.16-2.29a5.62,5.62,0,0,1,3.58-.73c1.79.27,2.58,1.87,4.54,1.51,1.56-.29,3-2.1,4-3.3a13.07,13.07,0,0,0,2.11-4,19.51,19.51,0,0,1-.28,4.09,10.05,10.05,0,0,1-5,7.7c-2.73,1.76-6,2.39-9.16,3a26.12,26.12,0,0,1-6.67,0,12,12,0,0,1-8-3.63,17.2,17.2,0,0,1-2.6-4.42,26.08,26.08,0,0,1-1.86-7C893.53,812.6,893.83,812.34,894.23,812Z" transform="translate(-844.25 -772.51)" style="fill: #c46a4c"/>
        <path d="M878,792.22a7.2,7.2,0,0,1,3.31-2.38,1.13,1.13,0,0,0,.74-1.25,7.64,7.64,0,0,1,1.12-4.78,22.5,22.5,0,0,1,4.1-4.92c2.87-2.78,7.55-4.12,11.33-5.12a33.35,33.35,0,0,1,9.16-1.25,31,31,0,0,1,6.57.85,19.72,19.72,0,0,1,9,4.41c2.46,2.34,3.92,6,3,9.21-1.1-2.69-2.24-4.61-4.16-6a11.32,11.32,0,0,1,1.72,5,11.46,11.46,0,0,1-1.28,6.42,13.64,13.64,0,0,0-6.34-7.28l-.27,0c-2.1.5-2.9,3.16-4.78,4.19-1.64.91-3.67.37-5.43-.29s-3.63-1.44-5.44-.95a7.47,7.47,0,0,0-3.26,2.22,13,13,0,0,1-3,2.61l-.23.12a.18.18,0,0,0-.09.24,1,1,0,0,1,.08.21,5.73,5.73,0,0,1-.84,4.86c-.84,1.46-1.5,3.28-.73,4.91a14.14,14.14,0,0,0,1,1.64c1.34,2.11.53,3.91-.33,6a10.58,10.58,0,0,0-2.59-4.12c-1.33-1.12-3.49-1.47-4.77-.3s-1.17,3.08-.86,4.71a16.73,16.73,0,0,0,1.78,5.19c-4.36-4-9.58-11.15-10.29-17A9.91,9.91,0,0,1,878,792.22Z" transform="translate(-844.25 -772.51)" style="fill: #c46a4c"/>
      </g>
    </g>
    <g>
      <path d="M923,895.69h0a65.85,65.85,0,0,0,3-12.57c.55-3.48,1.06-7.69,1.4-12.71,1-14.23.12-22.62-.28-25.46a2.3,2.3,0,0,0-1.11-1.66c-.74-.45-1.85-1.1-3.08-1.75l.21-.41,1.14-1.34a.88.88,0,0,0-.1-1.24,22.15,22.15,0,0,0-5.53-3.88c1.1.17,2.2.37,3.28.6,4.24.92,9.59,1.93,10.28,7.06.58,4.23-2,8.21-1.7,12.43.92,14.87-1.83,24.15-2.51,28.65a57.29,57.29,0,0,0-.4,14.34s1.38,7.31,2.35,13.1a64.31,64.31,0,0,1,.75,9.35.76.76,0,0,1-.74.76l-1.17,0-2.24,0h0c-.39,0-4.52-.12-4.21-8.58C922.42,908.9,922.71,902.76,923,895.69Z" transform="translate(-844.25 -772.51)" style="fill: #402a49"/>
      <path d="M880.72,856.07c-.74-4.45-5.27-7.75-5-12.43.27-5.42,6.78-6.83,11-7.87q2.71-.66,5.48-1.09c-2.62,1.44-2.66,3.38-2.43,4.43a1.29,1.29,0,0,0,.86.95l4.67,1.54c-.9.74-1.71,1.44-2.29,1.93a1.3,1.3,0,0,0-.28,1.6c1,1.9,3.68,7,8.2,17.65,5.74,13.48,7.36,31.84,7.51,33.58h0c.14,7.8.16,14.33.15,16.52,0,5.45-1,8.45-6.67,8.54l-13.06.23-1.4,0a.74.74,0,0,1-.76-.7,38.13,38.13,0,0,1,3.09-16.21c1.9-4.77,5.43-13.67.18-24.54C885.59,871.2,881.88,863.14,880.72,856.07Z" transform="translate(-844.25 -772.51)" style="fill: #402a49"/>
      <g>
        <path d="M918.63,834.66a22.15,22.15,0,0,1,5.53,3.88.88.88,0,0,1,.1,1.24l-1.14,1.34-.21.41c1.23.65,2.34,1.3,3.08,1.75a2.3,2.3,0,0,1,1.11,1.66c.4,2.84,1.27,11.23.28,25.46-.34,5-.85,9.23-1.4,12.71a65.85,65.85,0,0,1-3,12.57c.42-10.71.79-23.56.51-32.82-.28-9.09-1.53-17.56-4-23-1.32-2.87-3-4.87-5.06-5.62C916.35,834.4,917.85,834.53,918.63,834.66Z" transform="translate(-844.25 -772.51)" style="fill: #4e3d5b"/>
        <path d="M892.18,834.68c1.47-.23,3.29-.38,5.3-.49-.85.34-1.64,1.19-.35,3.33.3.49.65,1.09,1,1.81a74.05,74.05,0,0,1,8.46,23.74c1.09,7.13,1.57,21.63,1.78,33.29-.15-1.74-1.77-20.1-7.51-33.58-4.52-10.64-7.17-15.75-8.2-17.65a1.3,1.3,0,0,1,.28-1.6c.58-.49,1.39-1.19,2.29-1.93l-4.67-1.54a1.29,1.29,0,0,1-.86-.95C889.52,838.06,889.56,836.12,892.18,834.68Z" transform="translate(-844.25 -772.51)" style="fill: #4e3d5b"/>
      </g>
    </g>
    <g>
      <path d="M889.43,896.45a3.92,3.92,0,0,1-4,6.71l-3.7-2.24,4.05-6.71Z" transform="translate(-844.25 -772.51)" style="fill: #f8a799"/>
      <path d="M897.14,905c-3.24,6.78-6.28,4.2-10.52,2s-6.39-6.6-4.82-9.89,6.28-4.2,10.51-2S900.37,898.23,897.14,905Z" transform="translate(-844.25 -772.51)" style="fill: #f8a799"/>
      <path d="M846.19,875.77a11.54,11.54,0,0,1,1.59-7.18,11.18,11.18,0,0,1,1.85-2.31l27.87-26.77a5.23,5.23,0,0,1,8.1,6.48,5.53,5.53,0,0,1-.86,1.07l-27.87,26.77a1.57,1.57,0,0,0-.15.19,1,1,0,0,0-.13.6,1,1,0,0,0,.46.72l28.61,17.3a.87.87,0,0,1,.3,1.2l-.23.37-4.05,6.71-.23.38a.88.88,0,0,1-1.2.29l-28.61-17.3A11.51,11.51,0,0,1,846.19,875.77Z" transform="translate(-844.25 -772.51)" style="fill: #4c3957"/>
    </g>
  </g>
</svg>
