<svg xmlns="http://www.w3.org/2000/svg" width="480" height="360" viewBox="0 0 480 360">
  <title>background</title>
  <g id="background">
    <g>
      <rect x="-330" y="-3.53" width="1108.6" height="369.53" style="fill: #94e9fe"/>
      <g>
        <path d="M-199.28,359.43c32.74-25,121.06-99.09,130.79-99.09,10.65,0,28.4,13.43,37.28,13.43s32-24.17,51.48-26,106.5,100.32,113.6,100.32S196,299.74,206.65,298s46.15,23.28,46.15,23.28,87-72.53,108.28-73.42c20.25-.85,128.7,88.9,153.1,111.62Z" style="fill: #46a8b2"/>
        <path d="M772,365.45C721.46,339.06,585,261,570,261c-16.45,0-43.87,14.16-57.58,14.16s-49.35-25.48-79.51-27.4S268.4,353.5,257.43,353.5s-96-51-112.41-52.85-71.29,24.54-71.29,24.54S-60.62,248.75-93.52,247.81c-31.28-.9-198.8,93.69-236.48,117.64Z" style="fill: #6cc4d3"/>
      </g>
    </g>
    <circle cx="430.88" cy="44.12" r="43.93" transform="translate(3.05 111.71) rotate(-14.82)" style="fill: #ffcb57"/>
  </g>
  <g id="tree">
    <g>
      <g>
        <g>
          <g>
            <polygon points="326.17 359.29 321.86 357.9 321.86 336.33 318.25 336.33 318.25 358 314.22 359.29 326.17 359.29" style="fill: #6f3921"/>
            <path d="M320.05,357.37a.48.48,0,0,1-.48.49h0a.49.49,0,0,1-.49-.49V341.82a.49.49,0,0,1,.49-.49h0a.48.48,0,0,1,.48.49Z" style="fill: #994423"/>
          </g>
          <g>
            <path d="M330.19,313.8c0,12.47-4.29,10.77-9.58,10.77S311,326.27,311,313.8s4.3-22.57,9.59-22.57S330.19,301.33,330.19,313.8Z" style="fill: #a6c835"/>
            <path d="M323.94,323.52c0,12.47-4.29,10.77-9.58,10.77s-9.59,1.7-9.59-10.77S309.06,301,314.36,301,323.94,311.06,323.94,323.52Z" style="fill: #9fbc28"/>
            <path d="M337.55,326.91c0,8.81-7.08,7.61-15.83,7.61s-15.83,1.2-15.83-7.61a15.83,15.83,0,1,1,31.66,0Z" style="fill: #a6c835"/>
            <path d="M332.14,327.93c0-9.12-5.63-7.88-12.57-7.88S307,318.81,307,327.93s5.62,16.52,12.57,16.52S332.14,337.05,332.14,327.93Z" style="fill: #a6c835"/>
            <path d="M315.64,306.43a7.4,7.4,0,0,1,5.14,2.35c-1.59-4.28-3.92-7-6.52-7-4.09,0-7.51,6.67-8.42,15.63C307.68,310.89,311.38,306.43,315.64,306.43Z" style="fill: #c7e54a"/>
            <path d="M319.56,296.32c4.78,0,8.81,6.44,10.07,15.25-.32-11-4.21-19.68-9-19.68-2.9,0-5.47,3.23-7.12,8.25C315.26,297.73,317.33,296.32,319.56,296.32Z" style="fill: #c7e54a"/>
            <path d="M322.07,319c10.83,0,14,4.46,14.1,4.7-1-6.67-7.11-11.78-14.45-11.78-7.59,0-13.82,5.46-14.54,12.44C307.18,324.37,309.88,319,322.07,319Z" style="fill: #c7e54a"/>
            <path d="M319.71,339.16a13.55,13.55,0,0,1-10.91-5.87c1.84,5.83,6,9.9,10.91,9.9s9.06-4.07,10.9-9.9A13.55,13.55,0,0,1,319.71,339.16Z" style="fill: #86a01a"/>
            <path d="M315.84,331.25a8.43,8.43,0,0,1-8.09-5.33,5.94,5.94,0,0,0-.2,1.53c0,3.62,3.29,6.56,7.34,6.56a7.19,7.19,0,0,0,7.18-5.21A8.92,8.92,0,0,1,315.84,331.25Z" style="fill: #86a01a"/>
            <path d="M331.87,331a6,6,0,0,0,3.92-5.68,4.24,4.24,0,0,1,.54.95,5,5,0,0,1-3.09,6.3,5.12,5.12,0,0,1-6.14-1.52A6.35,6.35,0,0,0,331.87,331Z" style="fill: #86a01a"/>
          </g>
        </g>
        <g>
          <path d="M428.61,359.72a13.9,13.9,0,0,1-2.63-8.11c0-8.12,7.1-14.71,15.87-14.71s15.88,6.59,15.88,14.71a13.84,13.84,0,0,1-2.64,8.11Z" style="fill: #9fbc28"/>
          <path d="M461.91,359.72H417.15a8.44,8.44,0,0,1-3.18-6.17c0-7.06,11.44-12.78,25.56-12.78s25.55,5.72,25.55,12.78A8.43,8.43,0,0,1,461.91,359.72Z" style="fill: #a6c835"/>
          <path d="M383.56,359.72H360.75a11.17,11.17,0,0,1-3.7-8.11c0-6.84,6.76-12.39,15.1-12.39s15.1,5.55,15.1,12.39A11.16,11.16,0,0,1,383.56,359.72Z" style="fill: #9fbc28"/>
          <path d="M342.18,359.72a8.63,8.63,0,0,1-1.39-4.62c0-5.78,5.89-10.46,13.16-10.46s13.17,4.68,13.17,10.46a8.63,8.63,0,0,1-1.39,4.62Z" style="fill: #a6c835"/>
          <path d="M403.54,359.72a14.69,14.69,0,0,1-3.89-10c0-7.92,6.06-14.33,13.55-14.33s13.55,6.41,13.55,14.33a14.74,14.74,0,0,1-3.89,10Z" style="fill: #a6c835"/>
          <path d="M358.86,359.72c1.89-4.57,14.57-8.11,29.94-8.11s28.05,3.54,29.95,8.11Z" style="fill: #a6c835"/>
          <path d="M402.38,359.72H387.62c-5.27-1.8-8.88-5.44-8.88-9.66,0-6,7.28-10.84,16.26-10.84s16.26,4.85,16.26,10.84C411.26,354.28,407.65,357.92,402.38,359.72Z" style="fill: #a6c835"/>
          <path d="M442,343c-8.62.89-15.53,6-17.87,12.46a9,9,0,0,1-.17-1C423.15,346.87,430,340,439.32,339c6.86-.71,13.09,2,16.2,6.53A23.45,23.45,0,0,0,442,343Z" style="fill: #c7e54a"/>
          <path d="M379.23,352.39c-6.21-.39-11.7,2.42-14.11,6.72a6.42,6.42,0,0,1,0-.76c.33-5.43,6-9.5,12.71-9.09,4.93.31,9,3,10.69,6.53A16.78,16.78,0,0,0,379.23,352.39Z" style="fill: #c7e54a"/>
          <path d="M356.3,348.12c-6.2-.39-11.69,2.42-14.11,6.71q0-.37,0-.75c.34-5.43,6-9.5,12.71-9.09,4.94.31,9,3,10.7,6.53A16.81,16.81,0,0,0,356.3,348.12Z" style="fill: #c7e54a"/>
          <path d="M395,341.16c-8.49,0-15.45,4.34-16.19,9.87a7.77,7.77,0,0,1-.07-1c0-6,7.28-10.84,16.26-10.84s16.26,4.85,16.26,10.84a7.77,7.77,0,0,1-.07,1C410.45,345.5,403.49,341.16,395,341.16Z" style="fill: #c7e54a"/>
          <g>
            <path d="M331,359.56c3.88-2.78,10.09-4.58,17.13-4.58s13.25,1.8,17.12,4.58Z" style="fill: #7d9617"/>
            <path d="M462.32,359.56H373a12,12,0,0,1,7.55-2.6,12.2,12.2,0,0,1,6.38,1.77c3.31-3.94,10.77-6.69,19.46-6.69a33.1,33.1,0,0,1,15.08,3.3c1.1-.09,2.23-.15,3.38-.15a38.9,38.9,0,0,1,7.58.74,11.59,11.59,0,0,1,9.78-5.05,11.36,11.36,0,0,1,10.42,6.22c.89-.08,1.79-.14,2.72-.14a26.46,26.46,0,0,1,7.95,1.21C463,358.64,462.66,359.09,462.32,359.56Z" style="fill: #7d9617"/>
          </g>
        </g>
        <g>
          <g>
            <polygon points="346.78 359.7 350.04 358.65 350.04 342.33 352.77 342.33 352.77 358.72 355.82 359.7 346.78 359.7" style="fill: #6f3921"/>
            <path d="M351.4,358.25a.37.37,0,0,0,.37.36h0a.37.37,0,0,0,.37-.36V346.48a.37.37,0,0,0-.37-.37h0a.37.37,0,0,0-.37.37Z" style="fill: #994423"/>
          </g>
          <g>
            <path d="M343.73,325.28c0,9.43,3.25,8.15,7.25,8.15s7.25,1.28,7.25-8.15S355,308.21,351,308.21,343.73,315.85,343.73,325.28Z" style="fill: #a6c835"/>
            <path d="M348.46,332.64c0,9.43,3.25,8.14,7.25,8.14s7.25,1.29,7.25-8.14-3.24-17.08-7.25-17.08S348.46,323.21,348.46,332.64Z" style="fill: #9fbc28"/>
            <path d="M338.16,335.2c0,6.67,5.37,5.76,12,5.76s12,.91,12-5.76a12,12,0,1,0-24,0Z" style="fill: #a6c835"/>
            <path d="M342.26,336c0-6.9,4.26-6,9.51-6s9.51-.94,9.51,6-4.26,12.5-9.51,12.5S342.26,342.88,342.26,336Z" style="fill: #a6c835"/>
            <path d="M354.75,319.71a5.58,5.58,0,0,0-3.89,1.77c1.2-3.23,3-5.28,4.93-5.28,3.09,0,5.68,5,6.37,11.82C360.76,323.08,358,319.71,354.75,319.71Z" style="fill: #c7e54a"/>
            <path d="M351.77,312.06c-3.61,0-6.65,4.87-7.61,11.54.24-8.32,3.18-14.89,6.78-14.89,2.19,0,4.14,2.45,5.38,6.24C355,313.13,353.47,312.06,351.77,312.06Z" style="fill: #c7e54a"/>
            <path d="M349.88,329.22c-8.2,0-10.56,3.38-10.67,3.56a11.15,11.15,0,0,1,21.93.5S359.1,329.22,349.88,329.22Z" style="fill: #c7e54a"/>
            <path d="M351.67,344.47a10.26,10.26,0,0,0,8.25-4.44c-1.4,4.41-4.56,7.49-8.25,7.49s-6.86-3.08-8.25-7.49A10.26,10.26,0,0,0,351.67,344.47Z" style="fill: #86a01a"/>
            <path d="M354.59,338.48a6.36,6.36,0,0,0,6.12-4,4.45,4.45,0,0,1,.15,1.16c0,2.74-2.48,5-5.55,5a5.43,5.43,0,0,1-5.43-3.94A6.74,6.74,0,0,0,354.59,338.48Z" style="fill: #86a01a"/>
            <path d="M342.46,338.3a4.53,4.53,0,0,1-3-4.3,3.19,3.19,0,0,0-.41.72,3.76,3.76,0,0,0,2.34,4.76,3.86,3.86,0,0,0,4.64-1.15A4.85,4.85,0,0,1,342.46,338.3Z" style="fill: #86a01a"/>
          </g>
        </g>
        <g>
          <g>
            <polygon points="442.89 359.7 446.37 358.58 446.37 341.17 449.28 341.17 449.28 358.65 452.53 359.7 442.89 359.7" style="fill: #6f3921"/>
            <path d="M447.83,358.15a.38.38,0,0,0,.39.39h0a.39.39,0,0,0,.39-.39V345.6a.39.39,0,0,0-.39-.39h0a.38.38,0,0,0-.39.39Z" style="fill: #994423"/>
          </g>
          <g>
            <path d="M439.64,323c0,10.05,3.47,8.68,7.74,8.68s7.73,1.37,7.73-8.68-3.46-18.22-7.73-18.22S439.64,312.94,439.64,323Z" style="fill: #a6c835"/>
            <path d="M444.69,330.84c0,10.06,3.46,8.69,7.73,8.69s7.73,1.37,7.73-8.69-3.46-18.21-7.73-18.21S444.69,320.78,444.69,330.84Z" style="fill: #9fbc28"/>
            <path d="M433.7,333.57c0,7.11,5.72,6.14,12.78,6.14s12.78,1,12.78-6.14a12.78,12.78,0,1,0-25.56,0Z" style="fill: #a6c835"/>
            <path d="M438.08,334.4c0-7.37,4.54-6.36,10.14-6.36s10.14-1,10.14,6.36-4.54,13.32-10.14,13.32S438.08,341.76,438.08,334.4Z" style="fill: #a6c835"/>
            <path d="M451.39,317.05a6,6,0,0,0-4.15,1.89c1.28-3.45,3.16-5.63,5.26-5.63,3.3,0,6.06,5.37,6.79,12.6C457.81,320.65,454.83,317.05,451.39,317.05Z" style="fill: #c7e54a"/>
            <path d="M448.22,308.89c-3.85,0-7.1,5.2-8.12,12.31.26-8.87,3.39-15.88,7.23-15.88,2.34,0,4.41,2.61,5.74,6.65C451.7,310,450,308.89,448.22,308.89Z" style="fill: #c7e54a"/>
            <path d="M446.2,327.2c-8.74,0-11.26,3.6-11.37,3.79a11.88,11.88,0,0,1,23.38.54S456,327.2,446.2,327.2Z" style="fill: #c7e54a"/>
            <path d="M448.11,343.45a10.94,10.94,0,0,0,8.79-4.73c-1.48,4.7-4.86,8-8.79,8s-7.32-3.29-8.8-8A10.94,10.94,0,0,0,448.11,343.45Z" style="fill: #86a01a"/>
            <path d="M451.22,337.07a6.79,6.79,0,0,0,6.53-4.3,5.08,5.08,0,0,1,.16,1.24c0,2.92-2.65,5.29-5.92,5.29a5.8,5.8,0,0,1-5.79-4.2A7.18,7.18,0,0,0,451.22,337.07Z" style="fill: #86a01a"/>
            <path d="M438.29,336.87a4.83,4.83,0,0,1-3.16-4.58,3.08,3.08,0,0,0-.44.77,4,4,0,0,0,2.5,5.08,4.13,4.13,0,0,0,4.95-1.23A5.13,5.13,0,0,1,438.29,336.87Z" style="fill: #86a01a"/>
          </g>
        </g>
      </g>
      <g>
        <g>
          <g>
            <polygon points="97.47 359.72 100.3 358.81 100.3 344.63 102.68 344.63 102.68 358.86 105.32 359.72 97.47 359.72" style="fill: #6f3921"/>
            <path d="M101.49,358.46a.31.31,0,0,0,.32.31h0a.31.31,0,0,0,.32-.31V348.23a.32.32,0,0,0-.32-.32h0a.32.32,0,0,0-.32.32Z" style="fill: #994423"/>
          </g>
          <g>
            <path d="M94.83,329.82c0,8.2,2.82,7.08,6.29,7.08s6.3,1.12,6.3-7.08S104.6,315,101.12,315,94.83,321.63,94.83,329.82Z" style="fill: #80ac2e"/>
            <path d="M98.93,336.21c0,8.19,2.82,7.08,6.3,7.08s6.3,1.11,6.3-7.08-2.82-14.83-6.3-14.83S98.93,328,98.93,336.21Z" style="fill: #79a022"/>
            <path d="M90,338.44c0,5.79,4.66,5,10.4,5s10.41.79,10.41-5a10.41,10.41,0,1,0-20.81,0Z" style="fill: #80ac2e"/>
            <path d="M93.55,339.11c0-6,3.7-5.18,8.26-5.18s8.26-.82,8.26,5.18S106.37,350,101.81,350,93.55,345.1,93.55,339.11Z" style="fill: #80ac2e"/>
            <path d="M104.39,325a4.87,4.87,0,0,0-3.38,1.54c1-2.81,2.58-4.59,4.29-4.59,2.68,0,4.93,4.38,5.53,10.27C109.62,327.91,107.19,325,104.39,325Z" style="fill: #9fc941"/>
            <path d="M101.81,318.33c-3.14,0-5.78,4.24-6.61,10,.21-7.22,2.76-12.93,5.88-12.93,1.91,0,3.6,2.12,4.68,5.42C104.64,319.26,103.28,318.33,101.81,318.33Z" style="fill: #9fc941"/>
            <path d="M100.17,333.25c-7.12,0-9.18,2.93-9.27,3.08a9.68,9.68,0,0,1,19,.44S108.18,333.25,100.17,333.25Z" style="fill: #9fc941"/>
            <path d="M101.72,346.49a8.9,8.9,0,0,0,7.16-3.86c-1.21,3.83-4,6.5-7.16,6.5s-6-2.67-7.17-6.5A8.9,8.9,0,0,0,101.72,346.49Z" style="fill: #628415"/>
            <path d="M104.26,341.29a5.53,5.53,0,0,0,5.31-3.5,3.71,3.71,0,0,1,.13,1,4.58,4.58,0,0,1-4.82,4.31,4.73,4.73,0,0,1-4.72-3.42A5.88,5.88,0,0,0,104.26,341.29Z" style="fill: #628415"/>
            <path d="M93.72,341.13a3.94,3.94,0,0,1-2.57-3.74,3.23,3.23,0,0,0-.36.63,3.28,3.28,0,0,0,2,4.14,3.36,3.36,0,0,0,4-1A4.21,4.21,0,0,1,93.72,341.13Z" style="fill: #628415"/>
          </g>
        </g>
        <g>
          <g>
            <polygon points="113.66 359.72 115.85 359.01 115.85 348.03 117.69 348.03 117.69 359.06 119.74 359.72 113.66 359.72" style="fill: #6f3921"/>
            <path d="M116.77,358.74a.25.25,0,0,0,.25.25h0a.25.25,0,0,0,.24-.25v-7.92a.24.24,0,0,0-.24-.24h0a.25.25,0,0,0-.25.24Z" style="fill: #994423"/>
          </g>
          <g>
            <path d="M111.61,336.57c0,6.34,2.18,5.48,4.88,5.48s4.87.86,4.87-5.48-2.18-11.48-4.87-11.48S111.61,330.23,111.61,336.57Z" style="fill: #a6c835"/>
            <path d="M114.79,341.52c0,6.34,2.18,5.47,4.88,5.47s4.87.87,4.87-5.47S122.36,330,119.67,330,114.79,335.17,114.79,341.52Z" style="fill: #9fbc28"/>
            <path d="M107.87,343.24c0,4.48,3.6,3.87,8,3.87s8.06.61,8.06-3.87a8.06,8.06,0,1,0-16.11,0Z" style="fill: #a6c835"/>
            <path d="M110.62,343.76c0-4.64,2.87-4,6.4-4s6.39-.63,6.39,4-2.86,8.4-6.39,8.4S110.62,348.4,110.62,343.76Z" style="fill: #a6c835"/>
            <path d="M119,332.82A3.76,3.76,0,0,0,116.4,334c.81-2.17,2-3.55,3.32-3.55,2.08,0,3.82,3.39,4.28,8C123.07,335.09,121.19,332.82,119,332.82Z" style="fill: #c7e54a"/>
            <path d="M117,327.67c-2.43,0-4.48,3.28-5.12,7.77.16-5.6,2.14-10,4.56-10,1.47,0,2.78,1.65,3.62,4.2A3.91,3.91,0,0,0,117,327.67Z" style="fill: #c7e54a"/>
            <path d="M115.75,339.22c-5.52,0-7.11,2.27-7.18,2.39a7.5,7.5,0,0,1,14.75.34S122,339.22,115.75,339.22Z" style="fill: #c7e54a"/>
            <path d="M117,349.47a6.89,6.89,0,0,0,5.54-3c-.93,3-3.06,5-5.54,5s-4.62-2.07-5.55-5A6.9,6.9,0,0,0,117,349.47Z" style="fill: #86a01a"/>
            <path d="M118.91,345.45a4.28,4.28,0,0,0,4.12-2.71,3.32,3.32,0,0,1,.1.77,3.55,3.55,0,0,1-3.73,3.34,3.66,3.66,0,0,1-3.66-2.65A4.53,4.53,0,0,0,118.91,345.45Z" style="fill: #86a01a"/>
            <path d="M110.76,345.32a3.06,3.06,0,0,1-2-2.89,2.12,2.12,0,0,0-.27.49,2.52,2.52,0,0,0,1.57,3.2,2.61,2.61,0,0,0,3.13-.78A3.2,3.2,0,0,1,110.76,345.32Z" style="fill: #86a01a"/>
          </g>
        </g>
        <g>
          <path d="M41.82,359.72a13.19,13.19,0,0,0,.46-3.46,12.91,12.91,0,1,0-25.82,0,13.19,13.19,0,0,0,.46,3.46Z" style="fill: #a6c835"/>
          <ellipse cx="51.02" cy="345.03" rx="20.89" ry="11.23" style="fill: #a6c835"/>
          <path d="M92.22,359.72a6.06,6.06,0,0,0,.2-1.53c0-7.48-13.61-13.55-30.39-13.55s-30.38,6.07-30.38,13.55a6.54,6.54,0,0,0,.19,1.53Z" style="fill: #9fbc28"/>
          <ellipse cx="79.5" cy="347.74" rx="12.15" ry="10.07" style="fill: #9fbc28"/>
          <path d="M162.75,359.72a14,14,0,0,0,2.59-8.11c0-8.12-7-14.71-15.57-14.71s-15.57,6.59-15.57,14.71a14.07,14.07,0,0,0,2.58,8.11Z" style="fill: #9fbc28"/>
          <path d="M136.16,359.72a4.25,4.25,0,0,0,1.07-2.69c0-5.56-13.26-10.06-29.62-10.06S78,351.47,78,357a4.25,4.25,0,0,0,1.07,2.69Z" style="fill: #a6c835"/>
          <path d="M128.88,347.35c0,4.07-4.59,7.36-10.26,7.36s-10.25-3.29-10.25-7.36S113,340,118.62,340,128.88,343.29,128.88,347.35Z" style="fill: #a6c835"/>
          <path d="M130.09,359.72H174a8.49,8.49,0,0,0,3.11-6.17c0-7.06-11.22-12.78-25.06-12.78S127,346.49,127,353.55A8.49,8.49,0,0,0,130.09,359.72Z" style="fill: #a6c835"/>
          <path d="M206.94,359.72h22.38a11.29,11.29,0,0,0,3.63-8.11c0-6.84-6.64-12.39-14.82-12.39s-14.81,5.55-14.81,12.39A11.28,11.28,0,0,0,206.94,359.72Z" style="fill: #9fbc28"/>
          <path d="M247.54,359.72a8.87,8.87,0,0,0,1.36-4.62c0-5.78-5.78-10.46-12.92-10.46s-12.91,4.68-12.91,10.46a8.77,8.77,0,0,0,1.36,4.62Z" style="fill: #a6c835"/>
          <path d="M187.35,359.72a14.87,14.87,0,0,0,3.82-10c0-7.92-6-14.33-13.3-14.33s-13.29,6.41-13.29,14.33a14.87,14.87,0,0,0,3.82,10Z" style="fill: #a6c835"/>
          <path d="M231.18,359.72c-1.87-4.57-14.3-8.11-29.38-8.11s-27.51,3.54-29.37,8.11Z" style="fill: #a6c835"/>
          <path d="M188.48,359.72H203c5.17-1.8,8.72-5.44,8.72-9.66,0-6-7.15-10.84-16-10.84s-15.95,4.85-15.95,10.84C179.77,354.28,183.32,357.92,188.48,359.72Z" style="fill: #a6c835"/>
          <path d="M50.58,338.73c7.73-.06,14.47,1.69,18.18,4.35-.62-4.82-8.51-8.58-18.18-8.5s-17.55,4-18.17,8.79C36.12,340.65,42.86,338.79,50.58,338.73Z" style="fill: #c7e54a"/>
          <path d="M78.11,341c5.65,0,10.47,2.91,12.42,7,0-.24,0-.47,0-.7,0-5.05-4.93-9.13-11-9.13-4.49,0-8.35,2.23-10.06,5.43A14.94,14.94,0,0,1,78.11,341Z" style="fill: #c7e54a"/>
          <path d="M40.69,349.85c4.68-3.22,10.28-3.56,14.15-1.26-.11-.21-.22-.41-.35-.61-2.77-4.18-9.1-4.75-14.14-1.29-3.73,2.56-5.7,6.61-5.38,10.24A15.47,15.47,0,0,1,40.69,349.85Z" style="fill: #c7e54a"/>
          <path d="M64.65,350.47c5.62.62,10.11,4,11.62,8.33,0-.23.09-.46.11-.69.53-5-3.95-9.61-10-10.27-4.47-.49-8.54,1.31-10.57,4.3A15,15,0,0,1,64.65,350.47Z" style="fill: #c7e54a"/>
          <path d="M84.42,352.78c5.17-2.33,10.73-1.65,14.14,1.31-.07-.22-.14-.44-.23-.66-2-4.61-8.13-6.32-13.7-3.82-4.11,1.85-6.76,5.48-7.06,9.11A15.27,15.27,0,0,1,84.42,352.78Z" style="fill: #c7e54a"/>
          <path d="M101,359.72a23.89,23.89,0,0,1,6.78-4.59c7.78-3.49,16.14-2.47,21.28,2-.11-.33-.22-.66-.36-1-3-6.93-12.23-9.5-20.6-5.74a18.52,18.52,0,0,0-9.5,9.35Z" style="fill: #c7e54a"/>
          <path d="M149.66,343c8.45.89,15.22,6,17.52,12.46.07-.34.13-.69.17-1,.76-7.54-6-14.43-15.1-15.39-6.73-.71-12.84,2-15.89,6.53A22.65,22.65,0,0,1,149.66,343Z" style="fill: #c7e54a"/>
          <path d="M211.19,352.39c6.09-.39,11.47,2.42,13.84,6.72a6.42,6.42,0,0,0,0-.76c-.32-5.43-5.91-9.5-12.46-9.09-4.84.31-8.85,3-10.49,6.53A16.25,16.25,0,0,1,211.19,352.39Z" style="fill: #c7e54a"/>
          <path d="M233.68,348.12c6.09-.39,11.47,2.42,13.84,6.71a6.26,6.26,0,0,0,0-.75c-.33-5.43-5.91-9.5-12.47-9.09-4.84.31-8.85,3-10.49,6.53A16.29,16.29,0,0,1,233.68,348.12Z" style="fill: #c7e54a"/>
          <path d="M117.94,343.12c4.86,0,9,2.1,10.86,5.1a5,5,0,0,0,.08-.87c0-4.06-4.59-7.35-10.26-7.35-5.29,0-9.65,2.87-10.19,6.57A13.76,13.76,0,0,1,117.94,343.12Z" style="fill: #c7e54a"/>
          <path d="M195.72,341.16c8.33,0,15.16,4.34,15.88,9.87a6.24,6.24,0,0,0,.08-1c0-6-7.15-10.84-16-10.84s-15.95,4.85-15.95,10.84a7.77,7.77,0,0,0,.07,1C180.57,345.5,187.4,341.16,195.72,341.16Z" style="fill: #c7e54a"/>
          <g>
            <path d="M75.56,359.56c-1.65-3.95-6.16-6.79-11.48-6.79a13.92,13.92,0,0,0-6.68,1.66,38.29,38.29,0,0,0-6.18-.5c-7,0-13.12,1.84-16.91,4.66a12.78,12.78,0,0,0-22.73,1Z" style="fill: #7d9617"/>
            <path d="M97.78,359.56a11.63,11.63,0,0,0-19,0Z" style="fill: #7d9617"/>
            <path d="M258.49,359.56c-3.8-2.78-9.9-4.58-16.8-4.58s-13,1.8-16.79,4.58Z" style="fill: #7d9617"/>
            <path d="M217.26,359.56a11.66,11.66,0,0,0-7.41-2.6,11.8,11.8,0,0,0-6.25,1.77C200.35,354.79,193,352,184.51,352a32,32,0,0,0-14.79,3.3c-1.08-.09-2.18-.15-3.31-.15a37.38,37.38,0,0,0-7.44.74,11.29,11.29,0,0,0-9.59-5.05,11.14,11.14,0,0,0-10.23,6.22c-.87-.08-1.75-.14-2.66-.14a25.27,25.27,0,0,0-8.91,1.56,24.18,24.18,0,0,0-10.84-2.39,22.7,22.7,0,0,0-12.58,3.43Z" style="fill: #7d9617"/>
          </g>
        </g>
        <g>
          <g>
            <polygon points="25.43 359.72 28.68 358.67 28.68 342.36 31.41 342.36 31.41 358.74 34.46 359.72 25.43 359.72" style="fill: #6f3921"/>
            <path d="M30.05,358.27a.36.36,0,0,0,.37.36h0a.36.36,0,0,0,.36-.36V346.51a.36.36,0,0,0-.36-.37h0a.36.36,0,0,0-.37.37Z" style="fill: #994423"/>
          </g>
          <g>
            <path d="M22.38,325.33c0,9.42,3.25,8.14,7.25,8.14s7.24,1.28,7.24-8.14-3.24-17.06-7.24-17.06S22.38,315.91,22.38,325.33Z" style="fill: #80ac2e"/>
            <path d="M27.11,332.68c0,9.42,3.24,8.14,7.24,8.14s7.25,1.28,7.25-8.14-3.25-17.06-7.25-17.06S27.11,323.26,27.11,332.68Z" style="fill: #79a022"/>
            <path d="M16.82,335.24c0,6.66,5.36,5.75,12,5.75s12,.91,12-5.75a12,12,0,1,0-23.94,0Z" style="fill: #80ac2e"/>
            <path d="M20.91,336c0-6.9,4.26-6,9.51-6s9.5-.94,9.5,6-4.26,12.49-9.5,12.49S20.91,342.91,20.91,336Z" style="fill: #80ac2e"/>
            <path d="M33.39,319.76a5.58,5.58,0,0,0-3.89,1.77c1.2-3.23,3-5.28,4.93-5.28,3.09,0,5.67,5,6.36,11.81C39.4,323.13,36.61,319.76,33.39,319.76Z" style="fill: #9fc941"/>
            <path d="M30.42,312.11c-3.61,0-6.66,4.88-7.61,11.54.24-8.31,3.18-14.88,6.77-14.88,2.19,0,4.14,2.44,5.38,6.24C33.67,313.18,32.11,312.11,30.42,312.11Z" style="fill: #9fc941"/>
            <path d="M28.53,329.27c-8.19,0-10.56,3.37-10.66,3.55a10.86,10.86,0,0,1,10.92-8.91,10.83,10.83,0,0,1,11,9.41S37.74,329.27,28.53,329.27Z" style="fill: #9fc941"/>
            <path d="M30.31,344.5a10.25,10.25,0,0,0,8.24-4.44c-1.39,4.41-4.55,7.48-8.24,7.48s-6.85-3.07-8.24-7.48A10.25,10.25,0,0,0,30.31,344.5Z" style="fill: #628415"/>
            <path d="M33.23,338.52a6.35,6.35,0,0,0,6.11-4,4.45,4.45,0,0,1,.16,1.16c0,2.74-2.49,5-5.55,5a5.44,5.44,0,0,1-5.43-3.94A6.78,6.78,0,0,0,33.23,338.52Z" style="fill: #628415"/>
            <path d="M21.11,338.33a4.53,4.53,0,0,1-3-4.29,3.37,3.37,0,0,0-.41.72,3.77,3.77,0,0,0,2.34,4.76,3.89,3.89,0,0,0,4.64-1.15A4.8,4.8,0,0,1,21.11,338.33Z" style="fill: #628415"/>
          </g>
        </g>
        <g>
          <g>
            <polygon points="60.52 359.72 62.62 359.04 62.62 348.48 64.39 348.48 64.39 359.08 66.36 359.72 60.52 359.72" style="fill: #6f3921"/>
            <path d="M63.51,358.78a.23.23,0,0,0,.23.24h0a.24.24,0,0,0,.24-.24v-7.61a.23.23,0,0,0-.24-.24h0a.23.23,0,0,0-.23.24Z" style="fill: #994423"/>
          </g>
          <g>
            <path d="M58.55,337.46c0,6.1,2.09,5.27,4.68,5.27s4.69.83,4.69-5.27-2.1-11-4.69-11S58.55,331.36,58.55,337.46Z" style="fill: #a6c835"/>
            <path d="M61.6,342.22c0,6.1,2.1,5.26,4.69,5.26s4.69.84,4.69-5.26-2.1-11.05-4.69-11.05S61.6,336.12,61.6,342.22Z" style="fill: #9fbc28"/>
            <path d="M54.94,343.87c0,4.32,3.47,3.73,7.75,3.73s7.75.59,7.75-3.73a7.75,7.75,0,1,0-15.5,0Z" style="fill: #a6c835"/>
            <path d="M57.59,344.37c0-4.46,2.76-3.85,6.15-3.85s6.15-.61,6.15,3.85-2.75,8.08-6.15,8.08S57.59,348.84,57.59,344.37Z" style="fill: #a6c835"/>
            <path d="M65.67,333.86A3.62,3.62,0,0,0,63.15,335c.78-2.09,1.92-3.41,3.19-3.41,2,0,3.67,3.26,4.12,7.64C69.56,336,67.75,333.86,65.67,333.86Z" style="fill: #c7e54a"/>
            <path d="M63.75,328.91c-2.34,0-4.31,3.15-4.93,7.46.16-5.38,2.06-9.63,4.38-9.63,1.42,0,2.68,1.58,3.49,4A3.77,3.77,0,0,0,63.75,328.91Z" style="fill: #c7e54a"/>
            <path d="M62.52,340c-5.3,0-6.83,2.18-6.9,2.3a7.21,7.21,0,0,1,14.18.32S68.48,340,62.52,340Z" style="fill: #c7e54a"/>
            <path d="M63.68,349.87A6.63,6.63,0,0,0,69,347c-.9,2.85-3,4.84-5.33,4.84s-4.44-2-5.34-4.84A6.65,6.65,0,0,0,63.68,349.87Z" style="fill: #86a01a"/>
            <path d="M65.57,346a4.11,4.11,0,0,0,4-2.61,2.66,2.66,0,0,1,.1.75A3.42,3.42,0,0,1,66,347.35a3.52,3.52,0,0,1-3.51-2.55A4.38,4.38,0,0,0,65.57,346Z" style="fill: #86a01a"/>
            <path d="M57.72,345.87a2.91,2.91,0,0,1-1.91-2.78,2.2,2.2,0,0,0-.27.47,2.44,2.44,0,0,0,1.52,3.08,2.49,2.49,0,0,0,3-.74A3.11,3.11,0,0,1,57.72,345.87Z" style="fill: #86a01a"/>
          </g>
        </g>
        <g>
          <g>
            <polygon points="184.11 359.72 181.34 358.82 181.34 344.91 179.01 344.91 179.01 358.88 176.41 359.72 184.11 359.72" style="fill: #6f3921"/>
            <path d="M180.17,358.48a.31.31,0,0,1-.31.31h0a.31.31,0,0,1-.32-.31v-10a.32.32,0,0,1,.32-.32h0a.31.31,0,0,1,.31.32Z" style="fill: #994423"/>
          </g>
          <g>
            <path d="M186.71,330.38c0,8-2.77,6.94-6.18,6.94s-6.18,1.1-6.18-6.94,2.77-14.56,6.18-14.56S186.71,322.34,186.71,330.38Z" style="fill: #80ac2e"/>
            <path d="M182.68,336.65c0,8-2.77,6.94-6.18,6.94s-6.18,1.1-6.18-6.94,2.76-14.56,6.18-14.56S182.68,328.61,182.68,336.65Z" style="fill: #79a022"/>
            <path d="M191.46,338.83c0,5.69-4.57,4.91-10.21,4.91s-10.22.78-10.22-4.91a10.22,10.22,0,1,1,20.43,0Z" style="fill: #80ac2e"/>
            <path d="M188,339.49c0-5.88-3.63-5.08-8.1-5.08s-8.11-.8-8.11,5.08,3.63,10.66,8.11,10.66S188,345.38,188,339.49Z" style="fill: #80ac2e"/>
            <path d="M177.32,325.63a4.79,4.79,0,0,1,3.32,1.51c-1-2.76-2.53-4.5-4.21-4.5-2.63,0-4.84,4.29-5.42,10.07C172.19,328.5,174.58,325.63,177.32,325.63Z" style="fill: #9fc941"/>
            <path d="M179.86,319.11c3.07,0,5.67,4.15,6.49,9.83-.21-7.09-2.72-12.69-5.78-12.69-1.87,0-3.53,2.09-4.59,5.32A5,5,0,0,1,179.86,319.11Z" style="fill: #9fc941"/>
            <path d="M181.47,333.74c7,0,9,2.87,9.09,3a9.5,9.5,0,0,0-18.69.43S173.61,333.74,181.47,333.74Z" style="fill: #9fc941"/>
            <path d="M180,346.73a8.73,8.73,0,0,1-7-3.78c1.18,3.76,3.88,6.38,7,6.38s5.84-2.62,7-6.38A8.75,8.75,0,0,1,180,346.73Z" style="fill: #628415"/>
            <path d="M177.45,341.63a5.41,5.41,0,0,1-5.21-3.44,4.07,4.07,0,0,0-.13,1,4.5,4.5,0,0,0,4.73,4.23,4.63,4.63,0,0,0,4.63-3.36A5.75,5.75,0,0,1,177.45,341.63Z" style="fill: #628415"/>
            <path d="M187.79,341.47a3.85,3.85,0,0,0,2.53-3.66,2.62,2.62,0,0,1,.35.61,3.21,3.21,0,0,1-2,4.06,3.31,3.31,0,0,1-4-1A4.06,4.06,0,0,0,187.79,341.47Z" style="fill: #628415"/>
          </g>
        </g>
        <g>
          <g>
            <polygon points="150.77 359.71 146.33 358.29 146.33 336.02 142.6 336.02 142.6 358.38 138.45 359.71 150.77 359.71" style="fill: #6f3921"/>
            <path d="M144.47,357.74a.51.51,0,0,1-.5.5h0a.5.5,0,0,1-.5-.5V341.69a.5.5,0,0,1,.5-.51h0a.51.51,0,0,1,.5.51Z" style="fill: #994423"/>
          </g>
          <g>
            <path d="M154.93,312.78c0,12.86-4.43,11.11-9.89,11.11s-9.89,1.75-9.89-11.11,4.43-23.28,9.89-23.28S154.93,299.92,154.93,312.78Z" style="fill: #80ac2e"/>
            <path d="M148.48,322.81c0,12.87-4.43,11.11-9.89,11.11s-9.89,1.76-9.89-11.11,4.43-23.28,9.89-23.28S148.48,310,148.48,322.81Z" style="fill: #79a022"/>
            <path d="M162.52,326.31c0,9.09-7.31,7.85-16.33,7.85s-16.34,1.24-16.34-7.85a16.34,16.34,0,1,1,32.67,0Z" style="fill: #80ac2e"/>
            <path d="M156.94,327.36c0-9.41-5.81-8.13-13-8.13s-13-1.28-13,8.13,5.8,17,13,17S156.94,336.77,156.94,327.36Z" style="fill: #80ac2e"/>
            <path d="M139.91,305.18a7.61,7.61,0,0,1,5.3,2.42c-1.63-4.41-4-7.2-6.72-7.2-4.22,0-7.75,6.87-8.68,16.11C131.7,309.78,135.52,305.18,139.91,305.18Z" style="fill: #9fc941"/>
            <path d="M144,294.74c4.93,0,9.08,6.65,10.39,15.75-.33-11.35-4.34-20.31-9.24-20.31-3,0-5.65,3.34-7.35,8.51C139.52,296.21,141.66,294.74,144,294.74Z" style="fill: #9fc941"/>
            <path d="M146.55,318.16c11.17,0,14.4,4.6,14.54,4.84-1.07-6.87-7.33-12.15-14.91-12.15-7.82,0-14.25,5.63-15,12.84C131.19,323.69,134,318.16,146.55,318.16Z" style="fill: #9fc941"/>
            <path d="M144.11,339a14,14,0,0,1-11.25-6.06c1.9,6,6.22,10.21,11.25,10.21s9.35-4.2,11.25-10.21A14,14,0,0,1,144.11,339Z" style="fill: #628415"/>
            <path d="M140.12,330.78a8.67,8.67,0,0,1-8.34-5.5,6,6,0,0,0-.21,1.58c0,3.74,3.39,6.77,7.57,6.77a7.42,7.42,0,0,0,7.41-5.37A9.19,9.19,0,0,1,140.12,330.78Z" style="fill: #628415"/>
            <path d="M156.66,330.53a6.19,6.19,0,0,0,4-5.87,4,4,0,0,1,.56,1,5.14,5.14,0,0,1-3.19,6.5,5.3,5.3,0,0,1-6.33-1.57A6.55,6.55,0,0,0,156.66,330.53Z" style="fill: #628415"/>
          </g>
        </g>
        <g>
          <g>
            <polygon points="206.15 359.71 209.9 358.51 209.9 339.72 213.04 339.72 213.04 358.59 216.55 359.71 206.15 359.71" style="fill: #6f3921"/>
            <path d="M211.47,358a.42.42,0,0,0,.42.43h0a.43.43,0,0,0,.43-.43V344.5a.43.43,0,0,0-.43-.43h0a.42.42,0,0,0-.42.43Z" style="fill: #994423"/>
          </g>
          <g>
            <path d="M202.64,320.1c0,10.85,3.74,9.37,8.35,9.37s8.34,1.48,8.34-9.37-3.73-19.66-8.34-19.66S202.64,309.24,202.64,320.1Z" style="fill: #a6c835"/>
            <path d="M208.08,328.57c0,10.85,3.74,9.37,8.35,9.37s8.35,1.48,8.35-9.37-3.74-19.66-8.35-19.66S208.08,317.71,208.08,328.57Z" style="fill: #9fbc28"/>
            <path d="M196.23,331.51c0,7.68,6.17,6.63,13.79,6.63s13.79,1.05,13.79-6.63a13.79,13.79,0,1,0-27.58,0Z" style="fill: #a6c835"/>
            <path d="M201,332.4c0-7.94,4.9-6.86,10.94-6.86s11-1.08,11,6.86-4.9,14.39-11,14.39S201,340.35,201,332.4Z" style="fill: #a6c835"/>
            <path d="M215.32,313.68a6.45,6.45,0,0,0-4.48,2c1.38-3.72,3.41-6.08,5.68-6.08,3.55,0,6.53,5.8,7.33,13.61C222.24,317.56,219,313.68,215.32,313.68Z" style="fill: #c7e54a"/>
            <path d="M211.9,304.87c-4.16,0-7.67,5.61-8.77,13.29.28-9.58,3.67-17.14,7.8-17.14,2.53,0,4.77,2.81,6.2,7.18C215.65,306.1,213.84,304.87,211.9,304.87Z" style="fill: #c7e54a"/>
            <path d="M209.72,324.63c-9.44,0-12.16,3.89-12.28,4.1a12.83,12.83,0,0,1,25.24.58S220.33,324.63,209.72,324.63Z" style="fill: #c7e54a"/>
            <path d="M211.77,342.18a11.79,11.79,0,0,0,9.5-5.11c-1.6,5.07-5.25,8.62-9.5,8.62s-7.89-3.55-9.49-8.62A11.78,11.78,0,0,0,211.77,342.18Z" style="fill: #86a01a"/>
            <path d="M215.14,335.29a7.32,7.32,0,0,0,7-4.64,5.4,5.4,0,0,1,.18,1.33c0,3.16-2.86,5.72-6.39,5.72a6.28,6.28,0,0,1-6.26-4.54A7.78,7.78,0,0,0,215.14,335.29Z" style="fill: #86a01a"/>
            <path d="M201.18,335.08a5.22,5.22,0,0,1-3.41-4.95,4,4,0,0,0-.48.83,4.33,4.33,0,0,0,2.7,5.48,4.45,4.45,0,0,0,5.34-1.32A5.57,5.57,0,0,1,201.18,335.08Z" style="fill: #86a01a"/>
          </g>
        </g>
      </g>
    </g>
  </g>
  <g id="building_1">
    <g>
      <rect x="55.55" y="121.21" width="70.97" height="16.96" style="fill: #ededed"/>
      <rect x="47.39" y="134.4" width="87.29" height="226.72" style="fill: #ededed"/>
      <rect x="54.93" y="145.71" width="39.26" height="11.79" style="fill: #8dd9f9"/>
      <rect x="54.93" y="160.6" width="39.26" height="11.79" style="fill: #8dd9f9"/>
      <rect x="54.93" y="175.49" width="39.26" height="11.79" style="fill: #8dd9f9"/>
      <rect x="54.93" y="190.38" width="39.26" height="11.79" style="fill: #86bbff"/>
      <rect x="54.93" y="205.27" width="39.26" height="11.79" style="fill: #8dd9f9"/>
      <rect x="54.93" y="220.16" width="39.26" height="11.79" style="fill: #8dd9f9"/>
      <rect x="54.93" y="235.05" width="39.26" height="11.79" style="fill: #8dd9f9"/>
      <rect x="54.93" y="249.94" width="39.26" height="11.79" style="fill: #8dd9f9"/>
      <rect x="54.93" y="264.83" width="39.26" height="11.79" style="fill: #8dd9f9"/>
      <rect x="54.93" y="279.72" width="39.26" height="11.79" style="fill: #8dd9f9"/>
      <rect x="54.93" y="294.61" width="39.26" height="11.79" style="fill: #86bbff"/>
      <rect x="54.93" y="309.5" width="39.26" height="11.79" style="fill: #8dd9f9"/>
      <rect x="54.93" y="324.39" width="39.26" height="11.79" style="fill: #8dd9f9"/>
      <rect x="54.93" y="339.28" width="39.26" height="11.79" style="fill: #8dd9f9"/>
      <rect x="98.81" y="145.71" width="12.13" height="11.79" style="fill: #8dd9f9"/>
      <rect x="98.81" y="160.6" width="12.13" height="11.79" style="fill: #86bbff"/>
      <rect x="98.81" y="175.49" width="12.13" height="11.79" style="fill: #8dd9f9"/>
      <rect x="98.81" y="190.38" width="12.13" height="11.79" style="fill: #8dd9f9"/>
      <rect x="98.81" y="205.27" width="12.13" height="11.79" style="fill: #8dd9f9"/>
      <rect x="98.81" y="220.16" width="12.13" height="11.79" style="fill: #8dd9f9"/>
      <rect x="98.81" y="235.05" width="12.13" height="11.79" style="fill: #8dd9f9"/>
      <rect x="98.81" y="249.94" width="12.13" height="11.79" style="fill: #86bbff"/>
      <rect x="98.81" y="264.83" width="12.13" height="11.79" style="fill: #8dd9f9"/>
      <rect x="98.81" y="279.72" width="12.13" height="11.79" style="fill: #8dd9f9"/>
      <rect x="98.81" y="294.61" width="12.13" height="11.79" style="fill: #8dd9f9"/>
      <rect x="98.81" y="309.5" width="12.13" height="11.79" style="fill: #8dd9f9"/>
      <rect x="98.81" y="324.39" width="12.13" height="11.79" style="fill: #86bbff"/>
      <rect x="98.81" y="339.28" width="12.13" height="11.79" style="fill: #8dd9f9"/>
      <rect x="114.4" y="145.71" width="12.12" height="11.79" style="fill: #8dd9f9"/>
      <rect x="114.4" y="160.6" width="12.12" height="11.79" style="fill: #8dd9f9"/>
      <rect x="114.4" y="175.49" width="12.12" height="11.79" style="fill: #8dd9f9"/>
      <rect x="114.4" y="190.38" width="12.12" height="11.79" style="fill: #8dd9f9"/>
      <rect x="114.4" y="205.27" width="12.12" height="11.79" style="fill: #8dd9f9"/>
      <rect x="114.4" y="220.16" width="12.12" height="11.79" style="fill: #8dd9f9"/>
      <rect x="114.4" y="235.05" width="12.12" height="11.79" style="fill: #86bbff"/>
      <rect x="114.4" y="249.94" width="12.12" height="11.79" style="fill: #8dd9f9"/>
      <rect x="114.4" y="264.83" width="12.12" height="11.79" style="fill: #8dd9f9"/>
      <rect x="114.4" y="279.72" width="12.12" height="11.79" style="fill: #8dd9f9"/>
      <rect x="114.4" y="294.61" width="12.12" height="11.79" style="fill: #86bbff"/>
      <rect x="114.4" y="309.5" width="12.12" height="11.79" style="fill: #8dd9f9"/>
      <rect x="114.4" y="324.39" width="12.12" height="11.79" style="fill: #8dd9f9"/>
      <rect x="114.4" y="339.28" width="12.12" height="11.79" style="fill: #8dd9f9"/>
    </g>
  </g>
  <g id="cloud">
    <path d="M465.51,177.36a8.36,8.36,0,0,0-3.32.69A13,13,0,0,0,448,167.91c0-.33.05-.65.05-1a15.32,15.32,0,0,0-26.56-10.42c-.5-.2-1-.36-1.53-.52,0-.05,0-.09,0-.13a8.33,8.33,0,0,0-7.94-8.31,12.89,12.89,0,0,0,.22-2.34,13.15,13.15,0,1,0-26.3,0c0,.06,0,.11,0,.17-.64-.06-1.29-.1-1.95-.1a21.64,21.64,0,0,0-4.58.5,21.7,21.7,0,0,0-32.55,27.4,12.85,12.85,0,0,0-2.5,6.76,8.35,8.35,0,1,0,2,8,13.06,13.06,0,0,0,11,6.07h92a13,13,0,0,0,9.1-3.7,8.34,8.34,0,1,0,7-12.93Z" style="fill: #fff"/>
    <path d="M200,48.62h59.54a9.23,9.23,0,0,0-3.44-17.8,9.1,9.1,0,0,0-3.69.78,12.88,12.88,0,0,0-9.87-8.17,13,13,0,0,0-24.42-5.6h0a15.55,15.55,0,0,0-15.52,14.82c-.14,0-.28,0-.42,0a8.15,8.15,0,0,0-2.15,16Z" style="fill: #fff"/>
    <path d="M199,233.69h53.91a8.35,8.35,0,0,0-3.11-16.11,8.25,8.25,0,0,0-3.34.7,11.71,11.71,0,0,0-8.94-7.4,11.81,11.81,0,0,0-22.11-5.06h0a14.07,14.07,0,0,0-14.05,13.41c-.13,0-.25,0-.38,0a7.37,7.37,0,0,0-2,14.49Z" style="fill: #fff"/>
  </g>
  <g id="building_2">
    <g>
      <rect x="344.49" y="103.13" width="62.75" height="12.72" style="fill: #210109"/>
      <rect x="330.06" y="110.76" width="89.9" height="249.24" style="fill: #210109"/>
    </g>
    <g>
      <rect x="336.01" y="119.24" width="11.87" height="228.1" style="fill: #8dd9f9"/>
      <rect x="352.97" y="119.24" width="11.87" height="228.1" style="fill: #86bbff"/>
      <rect x="369.93" y="119.24" width="11.87" height="228.1" style="fill: #8dd9f9"/>
      <rect x="386.89" y="119.24" width="11.87" height="228.1" style="fill: #86bbff"/>
      <rect x="403.84" y="119.24" width="11.87" height="228.1" style="fill: #8dd9f9"/>
    </g>
  </g>
</svg>
