<svg id="Layer_7" data-name="Layer 7" xmlns="http://www.w3.org/2000/svg" width="37.21" height="26.19" viewBox="0 0 37.21 26.19">
  <title>bird</title>
  <g>
    <path d="M239.61,124.6a1.43,1.43,0,0,1-1-.42l-4.38-4.39a1.43,1.43,0,0,1,2-2l4.39,4.38a1.44,1.44,0,0,1-1,2.45Z" transform="translate(-214.57 -99)" style="fill: #9a7e7a"/>
    <path d="M234.76,125.19a1.42,1.42,0,0,1-1-.42l-4.39-4.39a1.43,1.43,0,0,1,2-2l4.38,4.38a1.44,1.44,0,0,1,0,2A1.42,1.42,0,0,1,234.76,125.19Z" transform="translate(-214.57 -99)" style="fill: #654e4e"/>
    <path d="M243,109.19v4.2H239.4v4.21h4.53a4.2,4.2,0,0,0,4.21-4.21h1.53a2.1,2.1,0,0,0,2.1-2.1h0a2.1,2.1,0,0,0-2.1-2.1Z" transform="translate(-214.57 -99)" style="fill: #654e4e"/>
    <polygon points="0 10.19 2.5 11.52 2.5 10.19 2.5 8.86 0 10.19" style="fill: #301d22"/>
    <path d="M228.56,109.19a5.88,5.88,0,1,0-11.76,0,13.84,13.84,0,0,0,27.67,0Z" transform="translate(-214.57 -99)" style="fill: #cfafa6"/>
    <path d="M225.93,117.28a9.89,9.89,0,0,1-3.71-3.5l4.79-1.9,1.88-2.69h-.33a5.88,5.88,0,1,0-11.76,0c0,.31,0,.61,0,.92a.86.86,0,0,1,0,.16c0,.31.06.61.1.91v0a15.17,15.17,0,0,0,.42,1.89h0a13.84,13.84,0,0,0,10.83,9.68v-1.66A4.38,4.38,0,0,0,225.93,117.28Z" transform="translate(-214.57 -99)" style="fill: #d81e28"/>
    <path d="M220.17,106.58a1.14,1.14,0,0,0-1.13,1.13h2.25A1.13,1.13,0,0,0,220.17,106.58Z" transform="translate(-214.57 -99)" style="fill: #301d22"/>
    <path d="M237,113.8A10.46,10.46,0,0,0,237,99l-14.8,14.8A10.46,10.46,0,0,0,237,113.8Z" transform="translate(-214.57 -99)" style="fill: #301d22"/>
    <path d="M230.92,113a5.65,5.65,0,0,0,0-8l-8,8A5.63,5.63,0,0,0,230.92,113Z" transform="translate(-214.57 -99)" style="fill: #9a7e7a"/>
  </g>
</svg>
