<svg id="Layer_4" data-name="Layer 4" xmlns="http://www.w3.org/2000/svg" width="112.73" height="196.49" viewBox="0 0 112.73 196.49">
  <title>car</title>
  <g>
    <path d="M257.63,95.05V94.4a8,8,0,0,0-8-8H215.44a8,8,0,0,0-8,8v.65Z" transform="translate(-176.17 -86.39)" style="fill: red"/>
    <g>
      <polyline points="46.24 32.72 37.36 41.6 43.64 47.88" style="fill: none;stroke: #131845;stroke-miterlimit: 10"/>
      <path d="M232.07,127.47a1.49,1.49,0,0,1-1.49,1.49H207.27a1.49,1.49,0,0,1-1.49-1.49h0a1.48,1.48,0,0,1,1.49-1.49h23.31a1.48,1.48,0,0,1,1.49,1.49Z" transform="translate(-176.17 -86.39)" style="fill: #131845"/>
      <path d="M204.49,123.61v7.7a3.85,3.85,0,0,0,0-7.7Z" transform="translate(-176.17 -86.39)" style="fill: #a3a1a5"/>
      <path d="M17.79,24.42h5.06a5.87,5.87,0,0,1,5.87,5.87V51.84a5.88,5.88,0,0,1-5.87,5.88H17.79a5.88,5.88,0,0,1-5.87-5.87V30.3A5.88,5.88,0,0,1,17.79,24.42Z" style="fill: #131845"/>
      <g>
        <path d="M191.88,139.24a.77.77,0,0,1-.77.77h0a.77.77,0,0,1-.76-.77V115.7a.76.76,0,0,1,.76-.77h0a.76.76,0,0,1,.77.77Z" transform="translate(-176.17 -86.39)" style="fill: #133159"/>
        <path d="M195.46,139.24a.77.77,0,0,1-.76.77h0a.77.77,0,0,1-.77-.77V115.7a.76.76,0,0,1,.77-.77h0a.76.76,0,0,1,.76.77Z" transform="translate(-176.17 -86.39)" style="fill: #133159"/>
        <path d="M199.05,139.24a.78.78,0,0,1-.77.77h0a.77.77,0,0,1-.77-.77V115.7a.76.76,0,0,1,.77-.77h0a.77.77,0,0,1,.77.77Z" transform="translate(-176.17 -86.39)" style="fill: #133159"/>
        <path d="M202.63,139.24a.78.78,0,0,1-.77.77h0a.77.77,0,0,1-.77-.77V115.7a.76.76,0,0,1,.77-.77h0a.77.77,0,0,1,.77.77Z" transform="translate(-176.17 -86.39)" style="fill: #133159"/>
      </g>
    </g>
    <g>
      <polyline points="66.89 32.72 75.77 41.6 69.49 47.88" style="fill: none;stroke: #131845;stroke-miterlimit: 10"/>
      <path d="M233.39,127.47a1.49,1.49,0,0,0,1.49,1.49H258.2a1.49,1.49,0,0,0,1.49-1.49h0A1.49,1.49,0,0,0,258.2,126H234.88a1.49,1.49,0,0,0-1.49,1.49Z" transform="translate(-176.17 -86.39)" style="fill: #131845"/>
      <path d="M261,123.61v7.7a3.85,3.85,0,0,1,0-7.7Z" transform="translate(-176.17 -86.39)" style="fill: #a3a1a5"/>
      <path d="M90.28,24.42h5.06a5.87,5.87,0,0,1,5.87,5.87V51.84a5.87,5.87,0,0,1-5.87,5.87H90.28a5.88,5.88,0,0,1-5.88-5.88V30.3A5.88,5.88,0,0,1,90.28,24.42Z" style="fill: #131845"/>
      <g>
        <path d="M273.58,139.24a.77.77,0,0,0,.77.77h0a.77.77,0,0,0,.76-.77V115.7a.76.76,0,0,0-.76-.77h0a.76.76,0,0,0-.77.77Z" transform="translate(-176.17 -86.39)" style="fill: #133159"/>
        <path d="M270,139.24a.77.77,0,0,0,.77.77h0a.77.77,0,0,0,.76-.77V115.7a.76.76,0,0,0-.76-.77h0a.76.76,0,0,0-.77.77Z" transform="translate(-176.17 -86.39)" style="fill: #133159"/>
        <path d="M266.42,139.24a.77.77,0,0,0,.76.77h0a.77.77,0,0,0,.77-.77V115.7a.76.76,0,0,0-.77-.77h0a.76.76,0,0,0-.76.77Z" transform="translate(-176.17 -86.39)" style="fill: #133159"/>
        <path d="M262.84,139.24a.77.77,0,0,0,.76.77h0a.77.77,0,0,0,.77-.77V115.7a.76.76,0,0,0-.77-.77h0a.76.76,0,0,0-.76.77Z" transform="translate(-176.17 -86.39)" style="fill: #133159"/>
      </g>
    </g>
    <g>
      <polyline points="46.24 149.16 37.36 158.04 43.64 164.31" style="fill: none;stroke: #131845;stroke-miterlimit: 10"/>
      <path d="M232.07,243.91a1.49,1.49,0,0,1-1.49,1.49H207.27a1.49,1.49,0,0,1-1.49-1.49h0a1.49,1.49,0,0,1,1.49-1.5h23.31a1.49,1.49,0,0,1,1.49,1.5Z" transform="translate(-176.17 -86.39)" style="fill: #131845"/>
      <path d="M204.49,240.05v7.7a3.85,3.85,0,1,0,0-7.7Z" transform="translate(-176.17 -86.39)" style="fill: #a3a1a5"/>
      <path d="M17.79,140.86h5.06a5.87,5.87,0,0,1,5.87,5.87v21.55a5.88,5.88,0,0,1-5.88,5.88H17.79a5.87,5.87,0,0,1-5.87-5.87V146.73A5.88,5.88,0,0,1,17.79,140.86Z" style="fill: #131845"/>
      <g>
        <path d="M191.88,255.68a.76.76,0,0,1-.77.76h0a.76.76,0,0,1-.76-.76V232.13a.76.76,0,0,1,.76-.76h0a.76.76,0,0,1,.77.76Z" transform="translate(-176.17 -86.39)" style="fill: #133159"/>
        <path d="M195.46,255.68a.76.76,0,0,1-.76.76h0a.76.76,0,0,1-.77-.76V232.13a.76.76,0,0,1,.77-.76h0a.76.76,0,0,1,.76.76Z" transform="translate(-176.17 -86.39)" style="fill: #133159"/>
        <path d="M199.05,255.68a.77.77,0,0,1-.77.76h0a.76.76,0,0,1-.77-.76V232.13a.76.76,0,0,1,.77-.76h0a.77.77,0,0,1,.77.76Z" transform="translate(-176.17 -86.39)" style="fill: #133159"/>
        <path d="M202.63,255.68a.77.77,0,0,1-.77.76h0a.76.76,0,0,1-.77-.76V232.13a.76.76,0,0,1,.77-.76h0a.77.77,0,0,1,.77.76Z" transform="translate(-176.17 -86.39)" style="fill: #133159"/>
      </g>
    </g>
    <g>
      <polyline points="66.89 149.16 75.77 158.04 69.49 164.31" style="fill: none;stroke: #131845;stroke-miterlimit: 10"/>
      <path d="M233.39,243.91a1.49,1.49,0,0,0,1.49,1.49H258.2a1.49,1.49,0,0,0,1.49-1.49h0a1.5,1.5,0,0,0-1.49-1.5H234.88a1.5,1.5,0,0,0-1.49,1.5Z" transform="translate(-176.17 -86.39)" style="fill: #131845"/>
      <path d="M261,240.05v7.7a3.85,3.85,0,0,1,0-7.7Z" transform="translate(-176.17 -86.39)" style="fill: #a3a1a5"/>
      <path d="M90.28,140.86h5.06a5.87,5.87,0,0,1,5.87,5.87v21.55a5.88,5.88,0,0,1-5.88,5.88H90.28a5.88,5.88,0,0,1-5.88-5.88V146.73A5.88,5.88,0,0,1,90.28,140.86Z" style="fill: #131845"/>
      <g>
        <path d="M273.58,255.68a.76.76,0,0,0,.77.76h0a.76.76,0,0,0,.76-.76V232.13a.76.76,0,0,0-.76-.76h0a.76.76,0,0,0-.77.76Z" transform="translate(-176.17 -86.39)" style="fill: #133159"/>
        <path d="M270,255.68a.76.76,0,0,0,.77.76h0a.76.76,0,0,0,.76-.76V232.13a.76.76,0,0,0-.76-.76h0a.76.76,0,0,0-.77.76Z" transform="translate(-176.17 -86.39)" style="fill: #133159"/>
        <path d="M266.42,255.68a.76.76,0,0,0,.76.76h0a.76.76,0,0,0,.77-.76V232.13a.76.76,0,0,0-.77-.76h0a.76.76,0,0,0-.76.76Z" transform="translate(-176.17 -86.39)" style="fill: #133159"/>
        <path d="M262.84,255.68a.76.76,0,0,0,.76.76h0a.76.76,0,0,0,.77-.76V232.13a.76.76,0,0,0-.77-.76h0a.76.76,0,0,0-.76.76Z" transform="translate(-176.17 -86.39)" style="fill: #133159"/>
      </g>
    </g>
    <path d="M221.21,101.23c.18,2.14.29,4.3.29,6.5a75.52,75.52,0,0,1-25.81,56.91v52a40.92,40.92,0,0,1,22.15,30.4h14.69v-147Z" transform="translate(-176.17 -86.39)" style="fill: red"/>
    <path d="M243.86,101.23c-.18,2.14-.3,4.3-.3,6.5a75.52,75.52,0,0,0,25.81,56.91v52a41,41,0,0,0-22.15,30.4H232.53l-2.15-147Z" transform="translate(-176.17 -86.39)" style="fill: red"/>
    <path d="M277,107.73v-1.16A14.17,14.17,0,0,0,262.81,92.4H202.25a14.17,14.17,0,0,0-14.17,14.17v1.16Z" transform="translate(-176.17 -86.39)" style="fill: #a02020"/>
    <path d="M247.48,257V178.66a14.95,14.95,0,1,0-29.89,0v76.47C227.54,255.84,237.51,256.42,247.48,257Z" transform="translate(-176.17 -86.39)" style="fill: #a81a1a"/>
    <path d="M232.53,163.71s-10.32,14.66-10.12,37.42c4.7,4.7,8.56-5.34,9.75-8.92,1.37,3.58,5.79,13.62,10.5,8.92C242.86,178.37,232.53,163.71,232.53,163.71Z" transform="translate(-176.17 -86.39)" style="fill: red"/>
    <path d="M242.66,220.51V201.13a10.13,10.13,0,1,0-20.25,0v19.38Z" transform="translate(-176.17 -86.39)" style="fill: #132655"/>
    <g>
      <path d="M240.36,265.3v-41a7.83,7.83,0,0,0-15.66,0v40.08C229.92,264.72,235.14,265,240.36,265.3Z" transform="translate(-176.17 -86.39)" style="fill: #ff2e2e"/>
      <path d="M288.9,273.62v-2a24.18,24.18,0,0,0-24.18-24.17H200.34a24.17,24.17,0,0,0-24.17,24.17v2Z" transform="translate(-176.17 -86.39)" style="fill: #931d1d"/>
      <path d="M287.72,272.17l-1.24-1.61a8,8,0,0,1-1-3.11,8.39,8.39,0,0,1-.55-2.15,9.26,9.26,0,0,0,4,17.59v-9.81A8.19,8.19,0,0,1,287.72,272.17Z" transform="translate(-176.17 -86.39)" style="fill: #931d1d"/>
      <path d="M177.29,272.17l1.24-1.61a42.29,42.29,0,0,0,1.59-5.26,9.26,9.26,0,0,1-4,17.59v-9.81A8.74,8.74,0,0,0,177.29,272.17Z" transform="translate(-176.17 -86.39)" style="fill: #931d1d"/>
    </g>
    <g>
      <path d="M202.56,208.64a1.69,1.69,0,0,1-1.69,1.69h0a1.7,1.7,0,0,1-1.7-1.69V173.2a1.7,1.7,0,0,1,1.7-1.69h0a1.69,1.69,0,0,1,1.69,1.69Z" transform="translate(-176.17 -86.39)" style="fill: #a81a1a"/>
      <path d="M209.13,208.64a1.69,1.69,0,0,1-1.69,1.69h0a1.7,1.7,0,0,1-1.7-1.69V173.2a1.7,1.7,0,0,1,1.7-1.69h0a1.69,1.69,0,0,1,1.69,1.69Z" transform="translate(-176.17 -86.39)" style="fill: #a81a1a"/>
    </g>
    <g>
      <path d="M257.84,208.64a1.69,1.69,0,0,1-1.69,1.69h0a1.7,1.7,0,0,1-1.7-1.69V173.2a1.7,1.7,0,0,1,1.7-1.69h0a1.69,1.69,0,0,1,1.69,1.69Z" transform="translate(-176.17 -86.39)" style="fill: #a81a1a"/>
      <path d="M264.41,208.64a1.69,1.69,0,0,1-1.69,1.69h0a1.7,1.7,0,0,1-1.7-1.69V173.2a1.7,1.7,0,0,1,1.7-1.69h0a1.69,1.69,0,0,1,1.69,1.69Z" transform="translate(-176.17 -86.39)" style="fill: #a81a1a"/>
    </g>
  </g>
</svg>
