<svg xmlns="http://www.w3.org/2000/svg" viewBox="0 0 153.86 211.7"><defs><style>.cls-1{isolation:isolate;}.cls-2{fill:#f68b33;}.cls-3{fill:#c3d947;}.cls-4{fill:#a2b63b;}.cls-5{fill:#468c86;}.cls-6{fill:#fff;}.cls-7{fill:#3d352b;}.cls-8{fill:#82502f;}.cls-9{fill:#fdbe64;}.cls-10{fill:#a24546;}.cls-11{fill:#faccd6;mix-blend-mode:multiply;}.cls-12{fill:#f3859b;}.cls-13{fill:#ea9a49;}.cls-14,.cls-15,.cls-16,.cls-18,.cls-19,.cls-20{fill:none;}.cls-14,.cls-15,.cls-16{stroke:#3d352b;}.cls-14,.cls-15,.cls-16,.cls-19,.cls-20{stroke-linecap:round;}.cls-14,.cls-15,.cls-16,.cls-20{stroke-linejoin:round;}.cls-14{stroke-width:0.99px;}.cls-15{stroke-width:0.41px;}.cls-16{stroke-width:0.45px;}.cls-17{fill:#53493e;}.cls-18,.cls-19,.cls-20{stroke:#53493e;}.cls-18,.cls-19{stroke-miterlimit:10;stroke-width:0.6px;}.cls-20{stroke-width:0.3px;}</style></defs><title>cat</title><g class="cls-1"><g id="Layer_2" data-name="Layer 2"><path class="cls-2" d="M400.44,434.13s2.09,23.67-12.52,21.24l-6.27-25.76Z" transform="translate(-270.42 -279.47)"/><path class="cls-3" d="M379.21,366.27s20.54,19.49,24,68.21c0,0-2.91,2.95-17.49.77l-11.31-58.91S374.72,360.68,379.21,366.27Z" transform="translate(-270.42 -279.47)"/><path class="cls-4" d="M386.68,437.23s10.75,1.58,16.91-1a12.91,12.91,0,0,0-.31-5.21c-.77-2.12-16.57-.79-17.07-.16Z" transform="translate(-270.42 -279.47)"/><path class="cls-2" d="M291.69,433.89s-3.11,21,13.21,19.81l.22-18.45Z" transform="translate(-270.42 -279.47)"/><path class="cls-3" d="M310.09,366.9c-7.9,6.34-23.86,30.07-22.93,64,0,0,11.31,8.37,18.91,5.12l5.9-51.47Z" transform="translate(-270.42 -279.47)"/><path class="cls-4" d="M287.15,423s13.22,5.26,18.56,5l-.63,9.5s-16.08-1.78-18.24-5.18C285.79,430.78,285.44,422,287.15,423Z" transform="translate(-270.42 -279.47)"/><path class="cls-5" d="M304.9,435.85c-3.6,16.85,1.27,38.06,9.81,37.61,8.52.42,8,11.36,11.63-5,1.06-6,8.86-11.15,18.38-10.88s21.87-3.28,24.47,15.92c.23,9.62,15.1,12.44,17.05-2.19,1.8-13.52,1.94-31.78.59-35.57C386.11,433.73,304.9,435.85,304.9,435.85Z" transform="translate(-270.42 -279.47)"/><path class="cls-6" d="M312.23,361.11s-11.34,67.61-10,78a1.33,1.33,0,0,0,1,1.49c6.79,1.58,47.56,9.57,84.86.49,0,0-7.36-64.19-11-67.64l1.08-16Z" transform="translate(-270.42 -279.47)"/><polygon class="cls-7" points="37.34 141.51 32.51 149.01 40.23 150.02 37.34 141.51"/><polygon class="cls-7" points="45.15 142.51 40.62 150.18 48.38 150.9 45.15 142.51"/><polygon class="cls-7" points="52.9 142.93 48.93 150.92 56.71 151.07 52.9 142.93"/><polygon class="cls-7" points="61.25 143.13 57.41 151.18 65.19 151.22 61.25 143.13"/><polygon class="cls-7" points="69.97 143.29 66.12 151.33 73.91 151.37 69.97 143.29"/><polygon class="cls-7" points="78.23 143.48 74.34 151.5 82.12 151.58 78.23 143.48"/><polygon class="cls-7" points="86.36 143.47 82.81 151.66 90.59 151.4 86.36 143.47"/><polygon class="cls-7" points="94.47 142.88 91.3 151.22 99.05 150.61 94.47 142.88"/><polygon class="cls-7" points="102.38 141.95 99.68 150.46 107.4 149.4 102.38 141.95"/><polygon class="cls-7" points="110.73 140.87 108.04 149.37 115.76 148.32 110.73 140.87"/><polygon class="cls-5" points="39.54 152.12 36.53 156.68 41.25 157.35 39.54 152.12"/><polygon class="cls-5" points="35.03 151.48 32.01 156.04 36.74 156.71 35.03 151.48"/><polygon class="cls-5" points="43.98 152.68 41.16 157.35 45.9 157.83 43.98 152.68"/><polygon class="cls-5" points="48.35 153.07 45.86 157.92 50.63 158.08 48.35 153.07"/><polygon class="cls-5" points="52.96 153.27 50.55 158.17 55.32 158.25 52.96 153.27"/><polygon class="cls-5" points="57.7 153.38 55.26 158.27 60.03 158.37 57.7 153.38"/><polygon class="cls-5" points="62.41 153.46 59.97 158.35 64.73 158.45 62.41 153.46"/><polygon class="cls-5" points="66.9 153.51 64.65 158.5 69.43 158.4 66.9 153.51"/><polygon class="cls-5" points="76.33 153.65 74.01 158.59 78.78 158.58 76.33 153.65"/><polygon class="cls-5" points="71.78 153.54 69.29 158.41 74.06 158.55 71.78 153.54"/><polygon class="cls-5" points="80.77 153.62 78.56 158.62 83.33 158.49 80.77 153.62"/><polygon class="cls-5" points="85.59 153.5 83.21 158.43 87.98 158.46 85.59 153.5"/><polygon class="cls-5" points="90.24 153.5 87.92 158.44 92.7 158.42 90.24 153.5"/><polygon class="cls-5" points="94.7 153.45 92.55 158.48 97.32 158.3 94.7 153.45"/><polygon class="cls-5" points="99.41 153.09 97.36 158.16 102.12 157.9 99.41 153.09"/><polygon class="cls-5" points="103.87 152.71 102.08 157.87 106.81 157.37 103.87 152.71"/><polygon class="cls-5" points="113.02 151.33 111.52 156.58 116.23 155.8 113.02 151.33"/><polygon class="cls-5" points="108.19 152.12 106.7 157.38 111.4 156.59 108.19 152.12"/><path class="cls-7" d="M306.92,468.14c1.42,0,18.62.32,19.81,1.1s-.21,18.88-2.08,20.73-28.89,1.45-32.84-.42-4.31-17.13,5.81-14.61c7.07,1.76,8.33,5.71,8.81,2.24A89,89,0,0,0,306.92,468.14Z" transform="translate(-270.42 -279.47)"/><path class="cls-7" d="M387.7,468.14c-1.42,0-18.63.32-19.82,1.1S368.1,488.12,370,490s28.89,1.45,32.84-.42,4.31-17.13-5.8-14.61c-7.07,1.76-8.33,5.71-8.81,2.24A89,89,0,0,1,387.7,468.14Z" transform="translate(-270.42 -279.47)"/></g><g id="Layer_3" data-name="Layer 3"><path class="cls-8" d="M353.93,299.65c4.56-4.28,12.3-7.6,11.83-15-.88-2.22-5.87,3.55-9.28,4.75-.71-2.25,1.33-5.42.5-5.35-3.12.25-2.78,4.64-5.61,6.2a9,9,0,0,0-2.19-5.15c-1-.51-2.21,3.07-2.75,4.23-1.53-1.48-3-6.14-4-5.13-1.24,9.09-8.55-7.51-9-4.34-.13,1.71-.77,3.58-.89,5.3-2.05-1.23-5.41-3.31-7-1.52-1.65,2.18,2.74,11,12.3,12.78,3.27.6,14.27,2.31,16.53.49" transform="translate(-270.42 -279.47)"/><path class="cls-9" d="M317.32,295.19c-7.52-3.82-28.64-16.13-34.76-9.15s10.18,28,14,32.57S317.32,295.19,317.32,295.19Z" transform="translate(-270.42 -279.47)"/><path class="cls-8" d="M309.47,299.09c-4.93-2.41-15.35-9.29-22.43-7.42-4.3,1.14,4.75,18.36,11.65,20.33C302.43,313.06,309.47,299.09,309.47,299.09Z" transform="translate(-270.42 -279.47)"/><path class="cls-9" d="M377.13,300.68c7.3-4.21,27.72-17.66,34.21-11s-8.64,28.54-12.21,33.28S377.13,300.68,377.13,300.68Z" transform="translate(-270.42 -279.47)"/><path class="cls-8" d="M385.1,304.73c4.66-2.91,14.3-10.85,21.54-9.72,4.39.68-2.8,18.75-9.46,21.43C393.58,317.89,385.1,304.73,385.1,304.73Z" transform="translate(-270.42 -279.47)"/><path class="cls-9" d="M347.51,291.91c-32.88-3.56-62.89,5.75-58.79,53.56,1.49,19.2,16.45,29.55,58.74,32.36s63.59-14,56.28-47.29S375.94,293.79,347.51,291.91Z" transform="translate(-270.42 -279.47)"/><path class="cls-7" d="M354.9,322.59c-4.37-1-10.14-1.87-12.35-.67-2.71,1.48,3.74,8.29,5.85,8.37S358.51,325.21,354.9,322.59Z" transform="translate(-270.42 -279.47)"/><path class="cls-10" d="M364.35,337c-7.14-1.61-27.94-5-31.63-4.77-5.21.3-2.67,25,11.29,27.42C358.64,362.44,369.3,338.75,364.35,337Z" transform="translate(-270.42 -279.47)"/><path class="cls-11" d="M371.2,341c-.16,4,3.71,7.43,8.65,7.63s9.08-2.9,9.24-6.92-3.71-7.43-8.66-7.64S371.36,336.93,371.2,341Z" transform="translate(-270.42 -279.47)"/><path class="cls-11" d="M306.71,332.28c-.86,3.93,2.35,8,7.17,9s9.45-1.25,10.32-5.18-2.35-8-7.17-9S307.58,328.35,306.71,332.28Z" transform="translate(-270.42 -279.47)"/><path class="cls-7" d="M348.28,341.91c1.45-2.43,6.7-.82.61,5.49l-3.89,1C341.27,344.64,341.66,335.86,348.28,341.91Z" transform="translate(-270.42 -279.47)"/><path class="cls-12" d="M331.83,347.33c13.57-5.93,24.48.72,28.16,4.8-3.9,4.89-9.55,8.77-16,7.56C337.79,358.62,333.85,353.12,331.83,347.33Z" transform="translate(-270.42 -279.47)"/><path class="cls-13" d="M364.91,306.33c-3.23.92-7.9-5.93-7.55-13.62,3.3.33,6.46.74,9.49,1.28C367.24,300.06,367.72,305.53,364.91,306.33Z" transform="translate(-270.42 -279.47)"/><path class="cls-13" d="M350,305.88c-5.76.25-5.29-7.79-5-14.21l2.45.24c2.47.16,4.9.34,7.25.55C354.41,299.32,353.57,305.72,350,305.88Z" transform="translate(-270.42 -279.47)"/><path class="cls-13" d="M338.85,304c-2.29,2.52-9.35-.6-7.26-12.65,3-.14,6.05-.12,9.16,0C340.3,296.23,340.91,301.72,338.85,304Z" transform="translate(-270.42 -279.47)"/><path class="cls-14" d="M313.82,321.23c1-9.89,17.25-11.16,16.29,1.66" transform="translate(-270.42 -279.47)"/><line class="cls-15" x1="44.92" y1="38.63" x2="40.17" y2="35.82"/><line class="cls-15" x1="46.47" y1="36.44" x2="42.57" y2="32.54"/><path class="cls-14" d="M384.21,326.8c.58-9.92-15.28-13.73-16.35-.93" transform="translate(-270.42 -279.47)"/><line class="cls-15" x1="112.78" y1="44" x2="117.91" y2="41.97"/><line class="cls-15" x1="111.59" y1="41.59" x2="116.06" y2="38.35"/><line class="cls-16" x1="32.94" y1="52.32" x2="0.23" y2="50.81"/><line class="cls-16" x1="33.19" y1="56.8" x2="1.2" y2="62.36"/><line class="cls-16" x1="120.55" y1="66.92" x2="152.35" y2="74.71"/><line class="cls-16" x1="121.43" y1="63.3" x2="153.63" y2="67.44"/><path class="cls-17" d="M338.31,390.63s2.28,14.78-1.07,19-15.31-4.32-18.57-8S329.49,386.69,338.31,390.63Z" transform="translate(-270.42 -279.47)"/><path class="cls-6" d="M329.93,396.05a2.45,2.45,0,1,0,2.76-2.13A2.47,2.47,0,0,0,329.93,396.05Z" transform="translate(-270.42 -279.47)"/><line class="cls-18" x1="91.76" y1="123.04" x2="65.57" y2="122.24"/><polyline class="cls-19" points="99.44 112.31 91.42 122.59 97.48 133.48"/><line class="cls-20" x1="85.51" y1="130.71" x2="88.03" y2="114.46"/><line class="cls-20" x1="79.74" y1="130.54" x2="80.37" y2="114.1"/><line class="cls-20" x1="72.77" y1="130.19" x2="73.4" y2="113.76"/></g></g></svg>